<?xml version="1.0" encoding="utf-8"?>
<!-- Generator: Adobe Illustrator 19.2.0, SVG Export Plug-In . SVG Version: 6.00 Build 0)  -->
<svg version="1.1" id="Layer_1" xmlns="http://www.w3.org/2000/svg" xmlns:xlink="http://www.w3.org/1999/xlink" x="0px" y="0px"
	 viewBox="0 0 180.3 84.5" style="enable-background:new 0 0 180.3 84.5;" xml:space="preserve">
<style type="text/css">
	.st0{fill:#1A468B;}
</style>
<path d="M67.7,59.4c0-1.8,1.4-3.7,3.3-3.7c0.7,0,1.3,0.2,1.7,0.4l0.5-0.4h0.1L73,57.8h-0.2c-0.4-1.2-1-1.8-1.9-1.8
	c-1.1,0-2.3,1.4-2.3,3.6c0,1.4,1,2.4,2,2.4c0.3,0,0.6,0,0.8-0.1l1.2-1.5h0.1l-0.3,1.4c-0.6,0.3-1.2,0.4-1.9,0.4
	C69,62.3,67.7,61.2,67.7,59.4"/>
<path d="M73.6,60.5c0-1.3,0.9-2.9,2.4-2.9c0.9,0,1.5,0.6,1.5,1.7c0,1.3-0.9,2.9-2.4,2.9C74.2,62.2,73.6,61.6,73.6,60.5 M76.6,59.5
	c0-0.8-0.2-1.6-1-1.6c-0.9,0-1.3,1.6-1.3,2.4c0,0.8,0.2,1.6,0.9,1.6C76.3,61.9,76.6,60.3,76.6,59.5"/>
<path d="M78.2,61.5l1-5.7l-0.6-0.3v-0.1l1.5-0.5l0,0L79,61.3c-0.1,0.3,0.1,0.4,0.9,0.4v0.1c-0.4,0.2-0.9,0.4-1.2,0.4
	C78.3,62.2,78.1,61.9,78.2,61.5"/>
<path d="M80.6,61.5l1-5.7L81,55.5v-0.1l1.5-0.5l0,0l-1.1,6.4c-0.1,0.3,0.1,0.4,0.9,0.4v0.1c-0.4,0.2-0.9,0.4-1.2,0.4
	C80.7,62.2,80.6,61.9,80.6,61.5"/>
<path d="M84.7,61.7c0.4,0,0.9-0.2,1.1-0.5l0.1,0.1c-0.3,0.6-1,1-1.6,1c-1,0-1.6-0.7-1.6-1.7c0-1.3,0.9-2.9,2.5-2.9
	c0.7,0,1.1,0.4,1.1,0.9c0,0.7-0.7,1.5-2.7,1.4C83.5,61,83.9,61.7,84.7,61.7 M85.6,58.4c0-0.3-0.2-0.6-0.5-0.6
	c-0.7,0-1.3,0.9-1.4,1.8C85,59.8,85.6,59,85.6,58.4"/>
<path d="M86,63c0-0.7,0.7-1.1,1.5-1.3l0.2-0.9c-0.6-0.2-0.9-0.7-0.9-1.3c0-0.9,0.8-1.9,2-1.9c0.4,0,0.8,0.1,1,0.4
	c0.4-0.4,0.7-0.5,0.9-0.5c0.3,0,0.5,0.2,0.5,0.5s-0.1,0.5-0.4,0.5c-0.2,0-0.4-0.2-0.4-0.4l-0.6,0.1C90,58.4,90,58.7,90,59
	c0,0.9-0.8,1.9-1.9,1.9H88c-0.1,0.3,0,0.4,0.2,0.5c1.4,0.5,1.8,0.8,1.8,1.4c0,0.7-0.7,1.5-2.1,1.5C86.7,64.2,86,63.7,86,63
	 M89.3,63.1c0-0.4-0.4-0.8-1.9-1.2c-0.5,0.2-0.7,0.6-0.7,1c0,0.5,0.6,1.1,1.5,1.1C88.8,63.9,89.3,63.7,89.3,63.1 M89.3,59
	c0-0.6-0.3-1.1-0.8-1.1c-0.6,0-1,0.8-1,1.6c0,0.6,0.3,1.1,0.8,1.1C88.9,60.6,89.3,59.8,89.3,59"/>
<path d="M92.8,61.7c0.4,0,0.9-0.2,1.1-0.5l0.1,0.1c-0.3,0.6-1,1-1.6,1c-1,0-1.6-0.7-1.6-1.7c0-1.3,0.9-2.9,2.5-2.9
	c0.7,0,1.1,0.4,1.1,0.9c0,0.7-0.7,1.5-2.7,1.4C91.5,61,91.9,61.7,92.8,61.7 M93.6,58.4c0-0.3-0.2-0.6-0.5-0.6
	c-0.7,0-1.3,0.9-1.4,1.8C93.1,59.8,93.6,59,93.6,58.4"/>
<path d="M96.6,60.5c0-1.3,0.9-2.9,2.4-2.9c0.9,0,1.5,0.6,1.5,1.7c0,1.3-0.9,2.9-2.4,2.9C97.3,62.2,96.6,61.6,96.6,60.5 M99.7,59.5
	c0-0.8-0.2-1.6-1-1.6c-0.9,0-1.3,1.6-1.3,2.4c0,0.8,0.2,1.6,0.9,1.6C99.3,61.9,99.7,60.3,99.7,59.5"/>
<path d="M99.7,63.7c0-0.2,0.2-0.4,0.5-0.4s0.6,0.2,0.8,0.5c0.2-0.3,0.4-0.8,0.5-1.5l0.6-4.1h-1V58l1.1-0.3v-0.3
	c0.2-1.1,0.5-1.6,1.1-2.1c0.3-0.3,0.7-0.4,1.1-0.4c0.5,0,0.8,0.3,0.8,0.5c0,0.3-0.2,0.5-0.5,0.5s-0.7-0.3-0.8-0.7
	c-0.4,0.3-0.7,0.8-0.9,2.2l-0.1,0.4h1.1l-0.1,0.4h-1.1l-0.4,3.1c-0.2,1.4-0.4,1.9-1,2.5c-0.3,0.3-0.6,0.5-1,0.5
	C99.9,64.2,99.7,64,99.7,63.7"/>
<path d="M105,61.9l0.7-0.3l3.1-5.8h0.4l1.3,5.9l0.8,0.2v0.2h-2.7v-0.2l1-0.2l-0.4-1.9h-1.9l-0.9,1.9l0.7,0.2v0.2H105V61.9z
	 M109.1,59.5l-0.5-2.5l0,0l-1.2,2.5H109.1z"/>
<path d="M111.2,63c0-0.7,0.7-1.1,1.5-1.3l0.2-0.9c-0.6-0.2-0.9-0.7-0.9-1.3c0-0.9,0.8-1.9,2-1.9c0.4,0,0.8,0.1,1,0.4
	c0.4-0.4,0.7-0.5,0.9-0.5c0.3,0,0.5,0.2,0.5,0.5s-0.1,0.5-0.4,0.5c-0.2,0-0.4-0.2-0.4-0.4l-0.6,0.1c0.2,0.2,0.2,0.5,0.2,0.8
	c0,0.9-0.8,1.9-1.9,1.9h-0.1c-0.1,0.3,0,0.4,0.2,0.5c1.4,0.5,1.8,0.8,1.8,1.4c0,0.7-0.7,1.5-2.1,1.5C111.9,64.2,111.2,63.7,111.2,63
	 M114.5,63.1c0-0.4-0.4-0.8-1.9-1.2c-0.5,0.2-0.7,0.6-0.7,1c0,0.5,0.6,1.1,1.5,1.1C114,63.9,114.5,63.7,114.5,63.1 M114.5,59
	c0-0.6-0.3-1.1-0.8-1.1c-0.6,0-1,0.8-1,1.6c0,0.6,0.3,1.1,0.8,1.1C114.1,60.6,114.5,59.8,114.5,59"/>
<path d="M116.8,58.4l-0.6-0.3V58l1.4-0.5l0,0l-0.1,1l0,0c0.3-0.6,0.8-1,1.2-1c0.3,0,0.6,0.2,0.6,0.5s-0.2,0.5-0.5,0.5
	c-0.2,0-0.4-0.1-0.6-0.3c-0.3,0.1-0.5,0.3-0.8,0.6l-0.5,3.3h-0.7L116.8,58.4z"/>
<path d="M119.7,61.5l0.5-3.1l-0.6-0.3V58l1.5-0.5l0,0l-0.6,3.7c-0.1,0.3,0.1,0.4,0.9,0.4v0.1c-0.4,0.2-0.9,0.4-1.2,0.4
	C119.8,62.2,119.7,61.9,119.7,61.5 M120.6,56.2c0-0.4,0.2-0.7,0.6-0.7c0.2,0,0.4,0.2,0.4,0.4c0,0.4-0.2,0.8-0.6,0.8
	C120.7,56.7,120.6,56.5,120.6,56.2"/>
<path d="M121.9,60.5c0-1.4,1.2-2.9,2.5-2.9c0.7,0,1,0.4,1,0.8c0,0.3-0.2,0.5-0.5,0.5s-0.5-0.2-0.5-0.6c0-0.2,0-0.3,0.1-0.5
	c-1.1,0-1.8,1.3-1.8,2.5c0,1,0.5,1.3,1.2,1.3c0.4,0,0.8-0.2,1.2-0.5l0.1,0.1c-0.3,0.6-1,1-1.6,1C122.4,62.2,121.9,61.4,121.9,60.5"
	/>
<path d="M126.1,60.7l0.4-2.2l-0.6-0.3V58l1.5-0.5l0,0l-0.5,2.8c-0.1,0.7,0,1.1,0.5,1.1c0.4,0,0.7-0.1,1.2-0.4l0.5-2.7l-0.6-0.3v0
	l1.5-0.5l0,0l-0.6,3.7c-0.1,0.3,0,0.4,0.9,0.4v0.1c-0.4,0.2-0.7,0.4-1.1,0.4c-0.5,0-0.6-0.4-0.6-0.9l0,0c-0.6,0.6-1.1,0.9-1.6,0.9
	C126.2,62.2,125.9,61.6,126.1,60.7"/>
<path d="M130.8,61.5l1-5.7l-0.6-0.3v-0.1l1.5-0.5l0,0l-1.1,6.4c-0.1,0.3,0.1,0.4,0.9,0.4v0.1c-0.4,0.2-0.9,0.4-1.2,0.4
	C130.9,62.2,130.7,61.9,130.8,61.5"/>
<path d="M133.2,61.2l0.5-3H133v-0.1l0.8-0.6l0.6-0.8l0.2,0.1l-0.2,1.1h1.2l-0.1,0.4h-1.2l-0.4,2.6c-0.1,0.3-0.1,0.6,0.1,0.7
	c0.1,0.1,0.4,0.1,0.7,0.1c0.2,0,0.3,0,0.5,0v0.1c-0.5,0.3-0.9,0.4-1.3,0.4C133.4,62.2,133.1,61.9,133.2,61.2"/>
<path d="M136.2,60.7l0.4-2.2l-0.6-0.3V58l1.5-0.5l0,0l-0.5,2.8c-0.1,0.7,0,1.1,0.5,1.1c0.4,0,0.7-0.1,1.2-0.4l0.5-2.7l-0.6-0.3v0
	l1.5-0.5l0,0l-0.6,3.7c-0.1,0.3,0,0.4,0.9,0.4v0.1c-0.4,0.2-0.7,0.4-1.1,0.4c-0.5,0-0.6-0.4-0.6-0.9l0,0c-0.6,0.6-1.1,0.9-1.6,0.9
	C136.4,62.2,136,61.6,136.2,60.7"/>
<path d="M141.5,58.4l-0.6-0.3V58l1.4-0.5l0,0l-0.1,1l0,0c0.3-0.6,0.8-1,1.2-1c0.3,0,0.6,0.2,0.6,0.5s-0.2,0.5-0.5,0.5
	c-0.2,0-0.4-0.1-0.6-0.3c-0.3,0.1-0.5,0.3-0.8,0.6l-0.5,3.3h-0.8L141.5,58.4z"/>
<path d="M145.9,61.7c0.4,0,0.9-0.2,1.1-0.5l0.1,0.1c-0.3,0.6-1,1-1.6,1c-1,0-1.6-0.7-1.6-1.7c0-1.3,0.9-2.9,2.5-2.9
	c0.7,0,1.1,0.4,1.1,0.9c0,0.7-0.7,1.5-2.7,1.4C144.7,61,145.1,61.7,145.9,61.7 M146.8,58.4c0-0.3-0.2-0.6-0.5-0.6
	c-0.7,0-1.3,0.9-1.4,1.8C146.2,59.8,146.8,59,146.8,58.4"/>
<path d="M147.8,63.2c0.5-0.5,0.7-0.8,0.8-1.1l0,0h-0.2h-0.1c-0.3,0-0.5-0.2-0.5-0.5s0.3-0.6,0.6-0.6c0.4,0,0.7,0.3,0.7,0.8
	s-0.4,1-1.2,1.4L147.8,63.2z"/>
<path d="M67.2,72.1l1-0.2l0.9-5.5l-0.9-0.2V66h4.7v1.7l-0.1,0.1L72.2,67c-0.3-0.4-0.4-0.6-1-0.6H70L69.6,69h0.6
	c0.6,0,0.9-0.2,1.2-0.9l0.1-0.3h0.1l-0.4,2.7H71v-0.3c-0.1-0.7-0.3-0.9-0.9-0.9h-0.6l-0.4,2.6l1,0.2v0.2h-2.9L67.2,72.1z"/>
<path d="M72.7,70.6c0-1.3,0.9-2.9,2.4-2.9c0.9,0,1.5,0.6,1.5,1.7c0,1.3-0.9,2.9-2.4,2.9C73.3,72.3,72.7,71.7,72.7,70.6 M75.8,69.6
	c0-0.8-0.2-1.6-1-1.6c-0.9,0-1.3,1.6-1.3,2.4s0.2,1.6,0.9,1.6C75.4,72.1,75.8,70.5,75.8,69.6"/>
<path d="M77,70.6c0-1.3,0.9-2.9,2.4-2.9c0.9,0,1.5,0.6,1.5,1.7c0,1.3-0.9,2.9-2.4,2.9C77.7,72.3,77,71.7,77,70.6 M80.1,69.6
	c0-0.8-0.2-1.6-1-1.6c-0.9,0-1.3,1.6-1.3,2.4S78,72,78.7,72C79.7,72.1,80.1,70.5,80.1,69.6"/>
<path d="M81.4,70.7c0-1.4,1.3-3,2.8-3c0.1,0,0.3,0,0.4,0l0.3-1.8l-0.6-0.3v-0.1l1.5-0.5l0,0l-1.1,6.4c-0.1,0.3,0.1,0.4,0.9,0.4v0.1
	c-0.4,0.2-0.8,0.4-1.2,0.4c-0.4,0-0.5-0.3-0.5-0.7l0,0c-0.4,0.4-0.7,0.7-1.2,0.7C82,72.3,81.4,71.8,81.4,70.7 M84,71.4l0.5-2.7
	c-0.2-0.3-0.5-0.5-0.9-0.5c-0.7,0-1.3,1-1.3,2.4c0,0.7,0.3,1.3,0.9,1.3C83.5,71.8,83.7,71.6,84,71.4"/>
<path d="M87.9,70.8c0-1.5,1.3-3.1,2.8-3.1c0.2,0,0.4,0,0.7,0.2l0.4-0.3h0.1l-0.7,3.8c0,0.3,0,0.4,0.9,0.4v0.1
	c-0.4,0.2-0.8,0.4-1.2,0.4c-0.4,0-0.5-0.3-0.5-0.7l0,0c-0.4,0.4-0.8,0.7-1.2,0.7C88.5,72.3,87.9,71.8,87.9,70.8 M90.4,71.4l0.5-2.7
	c-0.2-0.3-0.5-0.5-0.9-0.5c-0.6,0-1.3,1-1.3,2.4c0,0.7,0.3,1.2,0.8,1.2C89.9,71.8,90.1,71.6,90.4,71.4"/>
<path d="M95.2,71.9c0-0.1,0-0.4,0.1-0.5l0.3-1.8c0.1-0.7,0-1.1-0.5-1.1c-0.4,0-0.7,0.1-1.2,0.4l-0.6,3.4h-0.7l0.6-3.7l-0.6-0.3v-0.1
	l1.4-0.5l0,0l-0.1,0.9l0,0c0.7-0.6,1.2-0.9,1.7-0.9c0.7,0,0.9,0.6,0.8,1.6L96,71.4c-0.1,0.3,0,0.4,0.9,0.4v0.1
	c-0.4,0.2-0.8,0.4-1.1,0.4C95.3,72.3,95.2,72.1,95.2,71.9"/>
<path d="M97.2,70.7c0-1.4,1.3-3,2.8-3c0.1,0,0.3,0,0.4,0l0.3-1.8l-0.6-0.3v-0.1l1.5-0.5l0,0l-1.1,6.4c-0.1,0.3,0.1,0.4,0.9,0.4v0.1
	c-0.4,0.2-0.8,0.4-1.2,0.4c-0.4,0-0.5-0.3-0.5-0.7l0,0c-0.4,0.4-0.7,0.7-1.2,0.7C97.9,72.3,97.2,71.8,97.2,70.7 M99.8,71.4l0.5-2.7
	c-0.2-0.3-0.5-0.5-0.9-0.5c-0.7,0-1.3,1-1.3,2.4c0,0.7,0.3,1.3,0.9,1.3C99.3,71.8,99.6,71.6,99.8,71.4"/>
<path d="M103.4,72.1l1-0.2l0.9-5.5l-0.9-0.2V66h4.7v1.7l-0.1,0.1l-0.6-0.8c-0.3-0.4-0.4-0.6-1-0.6h-1.1l-0.4,2.6h0.4
	c0.6,0,0.9-0.2,1.2-0.9l0.1-0.3h0.1l-0.4,2.7h-0.1v-0.3c-0.1-0.7-0.3-0.9-0.9-0.9h-0.4l-0.4,2.7h1.4c0.6,0,0.7-0.2,1.1-0.5l1-1.1
	h0.1l-0.5,1.9h-5.1L103.4,72.1z"/>
<path d="M112.6,71.9c0-0.1,0-0.4,0.1-0.5l0.3-1.8c0.1-0.7,0-1.1-0.5-1.1c-0.4,0-0.7,0.1-1.2,0.4l-0.6,3.4H110l0.6-3.7l-0.6-0.3v-0.1
	l1.4-0.5l0,0l-0.1,0.9l0,0c0.7-0.6,1.2-0.9,1.7-0.9c0.7,0,0.9,0.6,0.8,1.6l-0.4,2.1c-0.1,0.3,0,0.4,0.9,0.4v0.1
	c-0.4,0.2-0.8,0.4-1.1,0.4C112.7,72.3,112.6,72.1,112.6,71.9"/>
<path d="M115.7,72.3l0.2-0.5c-0.1-1.7-0.3-2.7-0.4-3.1c-0.1-0.2-0.1-0.3-0.3-0.3c-0.1,0-0.3,0-0.5,0.1v-0.1c0.3-0.3,0.7-0.7,1.1-0.7
	s0.5,0.2,0.6,0.5c0.2,0.5,0.4,2,0.4,3.1l0,0c0.7-0.8,1.1-1.5,1.3-2.1c-0.1-0.3-0.2-0.6-0.2-0.8c0-0.4,0.2-0.7,0.5-0.7
	s0.5,0.3,0.5,0.7c0,1-1.4,2.7-2.7,4L115.7,72.3z"/>
<path d="M119.2,71.7l0.5-3.1l-0.6-0.3v-0.1l1.5-0.5l0,0l-0.6,3.7c-0.1,0.3,0.1,0.4,0.9,0.4v0.1c-0.4,0.2-0.9,0.4-1.2,0.4
	C119.3,72.3,119.1,72,119.2,71.7 M120,66.4c0-0.4,0.2-0.8,0.6-0.8c0.2,0,0.4,0.2,0.4,0.4c0,0.4-0.2,0.8-0.6,0.8
	C120.2,66.8,120,66.7,120,66.4"/>
<path d="M122.2,68.6l-0.6-0.3v-0.1l1.4-0.5l0,0l-0.1,1l0,0c0.3-0.6,0.8-1,1.2-1c0.3,0,0.6,0.2,0.6,0.5s-0.2,0.5-0.5,0.5
	c-0.2,0-0.4-0.1-0.6-0.3c-0.3,0.1-0.5,0.3-0.8,0.6l-0.5,3.3h-0.7L122.2,68.6z"/>
<path d="M124.6,70.6c0-1.3,0.9-2.9,2.4-2.9c0.9,0,1.5,0.6,1.5,1.7c0,1.3-0.9,2.9-2.4,2.9C125.2,72.3,124.6,71.7,124.6,70.6
	 M127.6,69.6c0-0.8-0.2-1.6-1-1.6c-0.9,0-1.3,1.6-1.3,2.4s0.2,1.6,0.9,1.6C127.3,72.1,127.6,70.5,127.6,69.6"/>
<path d="M131.8,71.9c0-0.1,0-0.4,0.1-0.5l0.3-1.8c0.1-0.7,0-1.1-0.5-1.1c-0.4,0-0.7,0.1-1.2,0.4l-0.6,3.4h-0.7l0.6-3.7l-0.6-0.3
	v-0.1l1.4-0.5l0,0l-0.1,0.9l0,0c0.7-0.6,1.2-0.9,1.7-0.9c0.7,0,0.9,0.6,0.8,1.6l-0.4,2.1c-0.1,0.3,0,0.4,0.9,0.4v0.1
	c-0.4,0.2-0.8,0.4-1.1,0.4C131.9,72.3,131.8,72.1,131.8,71.9"/>
<path d="M139,71.9c0-0.1,0-0.4,0.1-0.5l0.3-1.8c0.1-0.7,0.2-1.1-0.4-1.1c-0.4,0-0.7,0.1-1.2,0.4l-0.6,3.4h-0.7l0.5-2.7
	c0.1-0.7,0.2-1.1-0.4-1.1c-0.4,0-0.7,0.1-1.2,0.4l-0.6,3.4H134l0.6-3.7l-0.6-0.3v-0.1l1.4-0.5l0,0l-0.1,0.9l0,0
	c0.7-0.6,1.2-0.9,1.7-0.9c0.6,0,0.7,0.4,0.7,0.9l0,0c0.7-0.6,1.2-0.9,1.7-0.9c0.7,0,0.8,0.6,0.6,1.6l-0.4,2.1
	c-0.1,0.3,0.1,0.4,0.9,0.4v0.1c-0.4,0.2-0.8,0.4-1.2,0.4C139.1,72.3,139,72.1,139,71.9"/>
<path d="M142.9,71.8c0.4,0,0.9-0.2,1.1-0.5l0.1,0.1c-0.3,0.6-1,1-1.6,1c-1,0-1.6-0.7-1.6-1.7c0-1.3,0.9-2.9,2.5-2.9
	c0.7,0,1.1,0.4,1.1,0.9c0,0.7-0.7,1.5-2.7,1.4C141.7,71.1,142.1,71.8,142.9,71.8 M143.8,68.5c0-0.3-0.2-0.6-0.5-0.6
	c-0.7,0-1.3,0.9-1.4,1.8C143.2,69.9,143.8,69.1,143.8,68.5"/>
<path d="M147.7,71.9c0-0.1,0-0.4,0.1-0.5l0.3-1.8c0.1-0.7,0-1.1-0.5-1.1c-0.4,0-0.7,0.1-1.2,0.4l-0.6,3.4H145l0.6-3.7l-0.6-0.3v-0.1
	l1.4-0.5l0,0l-0.1,0.9l0,0c0.7-0.6,1.2-0.9,1.7-0.9c0.7,0,0.9,0.6,0.8,1.6l-0.4,2.1c-0.1,0.3,0,0.4,0.9,0.4v0.1
	c-0.4,0.2-0.8,0.4-1.1,0.4C147.8,72.3,147.7,72.1,147.7,71.9"/>
<path d="M150,71.3l0.5-3h-0.7v-0.1l0.8-0.6l0.6-0.8l0.2,0.1l-0.2,1.1h1.2l-0.1,0.4h-1.2l-0.4,2.6c-0.1,0.3-0.1,0.6,0.1,0.7
	c0.1,0.1,0.4,0.1,0.7,0.1c0.2,0,0.3,0,0.5,0v0.1c-0.5,0.3-0.9,0.4-1.3,0.4C150.2,72.3,149.9,72,150,71.3"/>
<polygon  fill='#1A468B' points="36.3,33.2 34.3,33.2 34.3,22.5 36.3,22.5 36.3,19.8 26.9,19.8 26.9,22.5 28.9,22.5 28.9,33.2 
	31.6,35.8 36.3,35.8 "/>
<polygon fill='#1A468B' points="43,35.8 47.7,35.8 50.4,33.2 50.4,22.5 52.4,22.5 52.4,19.8 43,19.8 43,22.5 45,22.5 45,33.2 43,33.2 
	"/>
<polygon fill='#1A468B' points="52.5,38.3 58.4,32.5 61.1,32.5 61.1,29.8 51,29.8 51,32.5 52,32.5 48,36.5 42.3,36.5 42.3,32.5 
	44.3,32.5 44.3,29.8 35,29.8 35,32.5 37,32.5 37,44.5 35,44.5 35,47.2 44.3,47.2 44.3,44.5 42.3,44.5 42.3,40.5 48,40.5 52,44.5 
	51,44.5 51,47.2 61.1,47.2 61.1,44.5 58.7,44.5 "/>
<path fill='#1A468B' d="M59.4,43.2l-4.9-4.9l4.5-4.5h3.3v-5.4H51.7v-4.7h2v-5.4h-12v5.4h2v4.7h-8v-4.7h2l0,0v-5.4l0,0h-12v5.4h2v10l0,0
	l0,0L31,37h4.7v6h-2v5.4h12V43h-2v-1.3h3.7l2.3,2.3v4.3h12.7v-5.4h-3V43.2z M61.7,47.9H50.4v-4l0,0l-2.7-2.7H43v2.7h2v4H34.3v-4h2
	v-7.4h-5l-3-3V23.1h-2v-4H37v4h-2v6h9.4v-6h-2v-4H53v4h-2v6h10.7v4h-3l-5.2,5.2l5.5,5.5h2.7V47.9z"/>
<path d="M74,18.8v-0.4h3.2v0.4l-1.3,0.4v5.2c0,1.9-1.2,3.4-3.5,3.4s-3.6-1-3.6-3.1V19l-1.4-0.3v-0.4h4.4v0.4L70.1,19v5.3
	c0,2,1,2.8,2.7,2.8c1.6,0,2.4-1.2,2.4-2.8v-5.2L74,18.8z"/>
<path d="M83.4,27l1,0.3v0.3h-3.2v-0.3l1-0.3v-3.7c0-1-0.4-1.6-1.3-1.6c-0.6,0-1.1,0.3-1.7,0.7V27l1,0.3v0.3h-3.1v-0.3l1-0.3v-4.9
	l-1-0.5v-0.2l2-0.5l0.1,0.1l-0.1,1.1h0.1c0.9-0.8,1.6-1.2,2.3-1.2c1.1,0,1.8,0.7,1.8,2L83.4,27L83.4,27z"/>
<path d="M85.3,21.7v-0.2l2.1-0.5h0.1v6l1,0.3v0.3h-3.1v-0.3l1-0.3v-4.9L85.3,21.7z M86.9,17.4c0.5,0,0.8,0.4,0.8,0.8
	c0,0.5-0.4,0.9-0.9,0.9S86,18.7,86,18.3S86.3,17.4,86.9,17.4"/>
<polygon points="92.2,26.1 92.4,26.1 93.1,24.2 93.9,21.9 92.9,21.4 92.9,21.1 95.6,21.1 95.6,21.4 94.5,21.9 92.1,27.7 91.7,27.7 
	89.2,21.7 88.3,21.4 88.3,21.1 91.5,21.1 91.5,21.4 90.6,21.7 "/>
<path d="M96.8,24c-0.1,1.8,0.7,2.9,2.4,2.9c0.7,0,1.2-0.2,2-0.7l0.1,0.3c-0.9,0.8-1.7,1.3-2.6,1.3c-1.8,0-3.1-1.3-3.1-3.3
	S97,21,98.7,21s2.6,1.5,2.6,3.1L96.8,24L96.8,24z M100,23.5c-0.1-1.4-0.5-2.1-1.5-2.1s-1.7,0.9-1.8,2.2L100,23.5z"/>
<path d="M106.1,22.7c-0.5,0-0.8-0.5-0.7-0.9c-0.5-0.1-1.1,0.5-1.4,1.1V27l1.1,0.3v0.3h-3.2v-0.3l1-0.3v-4.9l-1-0.5v-0.2l2-0.5
	L104,21l-0.1,1.2h0.1c0.6-1,1.2-1.4,1.9-1.4c0.6,0,1,0.4,1,0.9S106.5,22.7,106.1,22.7"/>
<path d="M109.6,27.7c-0.8,0-1.4-0.1-2.1-0.4v-1.8h0.3c0.5,1.3,1.1,1.8,2,1.8c0.8,0,1.3-0.4,1.3-1.2c0-0.6-0.4-0.9-1.6-1.3
	c-1.2-0.5-2-0.9-2-1.9c0-1.1,0.9-2,2.3-2c0.7,0,1.4,0.1,1.9,0.3v1.6l-0.3,0.1c-0.6-1.1-1-1.6-1.9-1.6c-0.6,0-1.1,0.4-1.1,1
	s0.4,0.9,1.5,1.3c1.6,0.6,2.2,1.1,2.2,2.1C112.1,26.9,111,27.7,109.6,27.7"/>
<path d="M113,21.7v-0.2l2.1-0.5h0.1v6l1,0.3v0.3h-3.1v-0.3l1-0.3v-4.9L113,21.7z M114.5,17.4c0.5,0,0.8,0.4,0.8,0.8
	c0,0.5-0.4,0.9-0.9,0.9s-0.8-0.4-0.8-0.8S114,17.4,114.5,17.4"/>
<path d="M118.8,27.7c-0.9,0-1.4-0.5-1.4-1.7v-4.2h-1.1v-0.3l1.2-0.6l0.7-1.7h0.4v1.9h2.2v0.7h-2.2v3.8c0,0.5,0.1,0.8,0.4,1
	c0.2,0.1,0.4,0.2,0.9,0.2c0.2,0,0.6,0,0.9-0.1V27C120.2,27.4,119.5,27.7,118.8,27.7"/>
<path d="M124.4,28.7c-0.6,1.4-1.1,1.9-1.9,1.9c-0.7,0-1-0.4-1-0.8s0.3-0.7,0.7-0.7c0.4,0,0.7,0.3,1,0.7c0.3-0.3,0.5-0.7,0.7-1.1
	l0.4-0.9l-2.5-5.9l-0.9-0.3v-0.3h3.1v0.3l-0.9,0.3l1.7,4.5h0.1l1.5-4.3l-1-0.4v-0.3h2.7v0.3l-1,0.4L124.4,28.7z"/>
<path d="M133.2,27.8c-2,0-3.1-1.5-3.1-3.4c0-1.8,1.2-3.4,3.3-3.4c2,0,3.1,1.4,3.1,3.4C136.5,26.1,135.3,27.8,133.2,27.8 M133.2,21.3
	c-1,0-1.8,0.9-1.8,3.1c0,2.1,0.9,3,1.9,3c1.1,0,1.8-0.9,1.8-3.1C135.2,22.2,134.3,21.3,133.2,21.3"/>
<path d="M139.5,21.8V27l1.2,0.3v0.3h-3.4v-0.3l1-0.3v-5.2H137v-0.3l1.3-0.4v-0.7c0-1.4,0.4-2.2,1.1-2.9c0.5-0.5,1.1-0.7,1.8-0.7
	s1.1,0.4,1.1,0.8s-0.3,0.7-0.7,0.7s-0.8-0.2-1.2-1c-0.6,0.4-1,1-1,2.5v1.3h1.8v0.6h-1.7V21.8z"/>
<polygon points="82.7,47.2 84.8,47.9 84.8,48.5 78.2,48.5 78.2,48 80,47.4 74.9,40.8 72.9,40.8 72.9,47.5 75.4,47.9 75.4,48.5 
	67.8,48.5 67.8,47.9 70.5,47.5 70.5,33.6 67.8,33.1 67.8,32.5 75.4,32.5 75.4,33.1 72.9,33.6 72.9,39.8 75.1,39.8 80.3,33.9 
	78.4,33.1 78.4,32.5 84,32.5 84,33.1 81.8,34 76.5,39.5 "/>
<path d="M86.8,42.2c-0.1,3.2,1.2,5.1,4.2,5.1c1.2,0,2.1-0.4,3.5-1.2l0.2,0.5c-1.6,1.5-3,2.3-4.6,2.3c-3.2,0-5.5-2.4-5.5-5.9
	c0-3.6,2.4-6.2,5.5-6.2s4.6,2.6,4.6,5.4C94.7,42.2,86.8,42.2,86.8,42.2z M92.5,41.3c-0.1-2.4-0.9-3.7-2.5-3.7
	c-1.7,0-2.9,1.6-3.1,3.9L92.5,41.3z"/>
<path d="M107.3,47.6l1.8,0.5v0.5h-5.5V48l1.7-0.5V41c0-1.7-0.7-2.8-2.3-2.8c-1,0-1.9,0.5-2.9,1.2v8l1.7,0.5v0.5h-5.5V48l1.8-0.5V39
	l-1.8-0.8v-0.4l3.6-0.9l0.2,0.2L99.9,39h0.2c1.5-1.4,2.7-2.1,4.1-2.1c2,0,3.2,1.2,3.2,3.5L107.3,47.6L107.3,47.6z"/>
<path d="M113.7,48.7c-1.6,0-2.5-1-2.5-2.9v-7.5h-1.9v-0.5l2.1-1l1.2-3h0.7v3.3h3.9v1.3h-3.9v6.8c0,0.9,0.1,1.5,0.7,1.8
	c0.3,0.2,0.7,0.3,1.6,0.3c0.4,0,1-0.1,1.7-0.2v0.5C116.1,48.3,114.9,48.7,113.7,48.7"/>
<path d="M130.7,47.6V48l-3.6,0.9l-0.2-0.2l0.2-1.9l-0.2-0.1c-1.5,1.4-2.6,2.1-4.1,2.1c-2.1,0-3.2-1.6-3.2-3.6v-6.5l-1.8-0.8v-0.3
	l3.6-0.9l0.2,0.2v7.5c0,1.9,0.7,2.9,2.3,2.9c1,0,2-0.5,3-1.1v-7.5l-1.8-0.8v-0.3l3.6-0.9L129,37v10.2L130.7,47.6z"/>
<path d="M140.1,40.6c-0.9,0-1.4-0.8-1.4-1.5c0-0.6,0.2-1,0.5-1.3c-0.4-0.1-0.7-0.2-1.1-0.2c-2,0-4.1,1.6-4.1,5.2
	c0,2.9,1.9,4.6,4.2,4.6c1.3,0,2.1-0.4,3.3-1l0.3,0.3c-1.3,1.4-2.8,2.2-4.5,2.2c-3.2,0-5.5-2.3-5.5-5.7c0-3.7,2.5-6.4,6.2-6.4
	c2.2,0,3.5,1,3.5,2.3C141.4,40,140.9,40.6,140.1,40.6"/>
<polygon points="153.4,47.5 154.8,48 154.8,48.5 150,48.5 150,48 151.1,47.5 147.8,43.1 146.6,43.1 146.6,47.6 148.1,48 148.1,48.5 
	142.8,48.5 142.8,48 144.6,47.6 144.6,32.1 142.6,31.3 142.6,30.8 146.4,29.8 146.6,30 146.6,42.2 147.8,42.2 151.1,38.6 
	149.7,37.7 149.7,37.2 154.4,37.2 154.4,37.8 152.7,38.4 149,41.9 "/>
<path d="M161.1,50.5c-1,2.5-2,3.3-3.4,3.3c-1.2,0-1.7-0.7-1.7-1.4s0.6-1.2,1.3-1.2c0.8,0,1.2,0.5,1.7,1.2c0.5-0.5,0.9-1.2,1.3-2
	l0.7-1.7l-4.4-10.4l-1.5-0.5v-0.5h5.4v0.5l-1.5,0.5l3,7.8h0.1l2.7-7.6l-1.8-0.7v-0.5h4.7v0.5l-1.7,0.8L161.1,50.5z"/>
<path d="M164.7,47.6c0-0.7,0.5-1.2,1.2-1.2s1.2,0.5,1.2,1.2s-0.5,1.2-1.2,1.2S164.7,48.3,164.7,47.6 M167,47.6
	c0-0.6-0.5-1.1-1.1-1.1s-1.1,0.5-1.1,1.1s0.5,1.1,1.1,1.1S167,48.2,167,47.6 M166.1,47.6L166.1,47.6c0.1,0.1,0.2,0.1,0.2,0.2
	c0.1,0.1,0.1,0.2,0.1,0.2s0.1,0.1,0.2,0.1v0.1h-0.2c-0.1,0-0.2,0-0.3-0.2l-0.1-0.2c0-0.1-0.1-0.1-0.2-0.1h-0.1v0.4h0.2v0.1h-0.7
	v-0.1h0.2v-1l-0.2-0.1l0,0h0.7c0.3,0,0.4,0.1,0.4,0.3C166.4,47.4,166.3,47.6,166.1,47.6 M165.9,47.1h-0.1v0.5h0.1
	c0.2,0,0.3-0.1,0.3-0.3S166.1,47.1,165.9,47.1"/>
</svg>
