<?xml version="1.0" encoding="utf-8"?>
<!DOCTYPE svg PUBLIC "-//W3C//DTD SVG 1.1//EN" "http://www.w3.org/Graphics/SVG/1.1/DTD/svg11.dtd">
<svg  version="1.1" xmlns="http://www.w3.org/2000/svg" xmlns:xlink="http://www.w3.org/1999/xlink" x="0px" y="0px">
	<style  type="text/css">

		svg #Logos {
		fill:#fff;
		}

		svg #wordmark {
		fill:#fff;
		}

		@media all and (max-height: 59px)  {
			svg * {display:none}
		}

		@media all and (min-width: 70px)  {
			#logo {
				display:inline;
			}
		}

		@media all and (min-width: 260px)  {
			#narrow {
				display:inline;
			}

			#logo {
				display:none;
			}
		}


		@media all and (min-width: 328px)  {

			#narrow {
				display:none;
			}

			#logo {
				display:none;
			}

			#scale {
				display:inline
			}
		}


	</style>

	<svg id="logo"   display="none"  preserveAspectRatio="xMinYMid meet" height="60px">
		<g id="Logos">
			<g>
				<polygon  points="24.1,27.9 21.2,27.9 21.2,12.5 24.1,12.5 24.1,8.6 10.6,8.6 10.6,12.5 13.5,12.5
					13.5,27.9 17.4,31.7 24.1,31.7 24.1,27.9 		"/>
				<polygon  points="33.7,31.7 40.5,31.7 44.3,27.9 44.3,12.5 47.2,12.5 47.2,8.6 33.7,8.6 33.7,12.5
					36.6,12.5 36.6,27.9 33.7,27.9 33.7,31.7 		"/>
				<polygon  points="47.4,35.3 55.9,26.9 59.7,26.9 59.7,23.1 45.3,23.1 45.3,26.9 46.7,26.9 40.9,32.7
					32.8,32.7 32.8,26.9 35.7,26.9 35.7,23.1 22.2,23.1 22.2,26.9 25.1,26.9 25.1,44.2 22.2,44.2 22.2,48.1 35.7,48.1 35.7,44.2
					32.8,44.2 32.8,38.5 40.9,38.5 46.7,44.2 45.3,44.2 45.3,48.1 59.7,48.1 59.7,44.2 56.4,44.2 47.4,35.3 		"/>
				<path  d="M57.3,42.3l-7-7l6.5-6.5h4.8l0-7.7l-15.4,0v-6.7h2.9V6.7H31.8h0v7.7h0h2.9v6.7H23.1v-6.7H26h0V6.7
					h0H8.7v7.7h2.9v14.4h0l0,0l4.8,4.8h6.7v8.7h-2.9V50h17.3v-7.7h-2.9v-1.9H40l3.4,3.4V50h18.3l0-7.7h0H57.3L57.3,42.3z M60.7,49.1
					H44.3v-5.8h0l-3.9-3.9h-6.7v3.9h2.9v5.8H21.2v-5.8h2.9V32.7h-7.2l-4.3-4.3V13.4h0H9.7V7.7h15.4v5.8h-2.9v8.7h13.5v-8.7h-2.9V7.7
					h15.4v5.8h-2.9v8.7h15.4v5.8h-4.3l-7.5,7.5l7.9,7.9h3.9V49.1L60.7,49.1z"/>
			</g>
		</g>
	</svg>

	<svg id="narrow"     display="none"  preserveAspectRatio="xMinYMid meet" height="60px" width="260px">
		<g id="Logos">
			<g>
				<polygon  points="24.1,27.9 21.2,27.9 21.2,12.5 24.1,12.5 24.1,8.6 10.6,8.6 10.6,12.5 13.5,12.5
					13.5,27.9 17.4,31.7 24.1,31.7 24.1,27.9 		"/>
				<polygon  points="33.7,31.7 40.5,31.7 44.3,27.9 44.3,12.5 47.2,12.5 47.2,8.6 33.7,8.6 33.7,12.5
					36.6,12.5 36.6,27.9 33.7,27.9 33.7,31.7 		"/>
				<polygon  points="47.4,35.3 55.9,26.9 59.7,26.9 59.7,23.1 45.3,23.1 45.3,26.9 46.7,26.9 40.9,32.7
					32.8,32.7 32.8,26.9 35.7,26.9 35.7,23.1 22.2,23.1 22.2,26.9 25.1,26.9 25.1,44.2 22.2,44.2 22.2,48.1 35.7,48.1 35.7,44.2
					32.8,44.2 32.8,38.5 40.9,38.5 46.7,44.2 45.3,44.2 45.3,48.1 59.7,48.1 59.7,44.2 56.4,44.2 47.4,35.3 		"/>
				<path  d="M57.3,42.3l-7-7l6.5-6.5h4.8l0-7.7l-15.4,0v-6.7h2.9V6.7H31.8h0v7.7h0h2.9v6.7H23.1v-6.7H26h0V6.7
					h0H8.7v7.7h2.9v14.4h0l0,0l4.8,4.8h6.7v8.7h-2.9V50h17.3v-7.7h-2.9v-1.9H40l3.4,3.4V50h18.3l0-7.7h0H57.3L57.3,42.3z M60.7,49.1
					H44.3v-5.8h0l-3.9-3.9h-6.7v3.9h2.9v5.8H21.2v-5.8h2.9V32.7h-7.2l-4.3-4.3V13.4h0H9.7V7.7h15.4v5.8h-2.9v8.7h13.5v-8.7h-2.9V7.7
					h15.4v5.8h-2.9v8.7h15.4v5.8h-4.3l-7.5,7.5l7.9,7.9h3.9V49.1L60.7,49.1z"/>
			</g>
		</g>
		<g id="wordmark">
			<g id="narrow">
	<g>
		<path  d="M82.783,24.024v0.425h-7.119v-0.425l2.473-0.449l-1.849-4.971h-5.47l-1.799,4.821l1.799,0.599
			v0.425h-4.521v-0.425l1.773-0.674l5.745-14.962h1.174L80.76,23.45L82.783,24.024z M73.565,11.335h-0.05l-2.397,6.444h4.846
			L73.565,11.335z"/>
		<path  d="M88.281,20.578c-0.725,0-1.398-0.175-1.898-0.4c-0.375,0.35-0.55,1.074-0.55,1.599
			c0,0.75,0.55,0.974,1.824,1l3.072,0.05c2.572,0.05,3.597,0.949,3.597,2.673c0,1.973-2.173,4.196-6.369,4.196
			c-3.248,0-4.996-1.299-4.996-2.748c0-1.049,1.049-2.048,2.647-2.573l-0.024-0.125c-0.999-0.325-1.574-0.974-1.574-1.749
			c0-0.75,0.6-1.648,1.948-2.448v-0.125c-1.273-0.625-2.098-1.624-2.098-3.172c0-2.398,2.123-3.872,4.671-3.872
			c1.148,0,2.173,0.3,2.897,0.824c1.199-0.774,2.099-1.124,2.872-1.124c0.825,0,1.249,0.5,1.249,1.124s-0.499,1.174-1.124,1.174
			c-0.624,0-1.049-0.399-1.124-1.024l-1.448,0.175l-0.05,0.125c0.649,0.649,0.974,1.449,0.974,2.323
			C92.777,18.904,90.929,20.578,88.281,20.578z M90.279,24.574l-4.146-0.05c-0.649,0.425-1.073,1.224-1.073,2.099
			c0,1.324,1.299,2.398,3.796,2.398c2.373,0,3.747-1.299,3.747-2.573C92.603,25.273,91.878,24.624,90.279,24.574z M88.206,13.384
			c-1.349,0-2.098,1.024-2.098,3.372c0,2.473,0.799,3.322,2.323,3.322c1.323,0,2.098-1.399,2.098-3.322
			C90.529,14.857,89.705,13.384,88.206,13.384z"/>
		<path  d="M103.071,15.657c-0.674,0-1.224-0.524-1.349-1.324c-0.924,0.075-1.873,0.799-2.223,1.624v7.718
			l1.724,0.45v0.325h-5.496v-0.325l1.649-0.45v-8.667l-1.624-1.049v-0.225l3.497-0.899l0.1,0.075l-0.05,2.448l0.1,0.075
			c0.8-1.549,2.124-2.573,3.272-2.573c1.124,0,1.674,0.699,1.674,1.449C104.346,15.107,103.821,15.657,103.071,15.657z"/>
		<path  d="M105.696,13.958v-0.225l3.646-0.899l0.101,0.075v10.766l1.673,0.45v0.325h-5.521v-0.325l1.749-0.45
			v-8.667L105.696,13.958z M108.469,7.688c0.774,0,1.349,0.575,1.349,1.349c0,0.799-0.649,1.523-1.499,1.523
			c-0.773,0-1.323-0.574-1.323-1.374C106.995,8.413,107.645,7.688,108.469,7.688z"/>
		<path  d="M120.859,16.606c-0.899,0-1.424-0.75-1.424-1.499c0-0.55,0.226-1.099,0.55-1.474
			c-0.35-0.075-0.624-0.1-1.049-0.1c-2.099,0-4.071,1.474-4.071,5.045c0,2.648,1.423,4.721,3.971,4.721
			c1.225,0,2.349-0.35,3.522-0.924l0.125,0.325c-1.174,1.274-2.772,2.148-4.371,2.148c-3.223,0-5.496-2.323-5.496-5.795
			c0-3.472,2.573-6.194,6.146-6.194c2.073,0,3.446,0.999,3.446,2.248C122.208,15.957,121.634,16.606,120.859,16.606z"/>
		<path  d="M136.299,23.7v0.25l-3.497,0.874l-0.1-0.05l0.05-1.973l-0.1-0.05
			c-1.499,1.399-2.923,2.098-4.271,2.098c-2.248,0-3.072-1.698-3.072-3.472v-6.544l-1.624-0.875v-0.225l3.647-0.899l0.1,0.075v7.394
			c0,1.923,0.674,2.823,2.323,2.823c1.049,0,1.798-0.225,2.797-0.799v-7.494l-1.648-0.875v-0.225l3.647-0.899l0.1,0.075V23.05
			L136.299,23.7z"/>
		<path  d="M142.896,24.125v0.325h-5.521v-0.325l1.748-0.45V8.238l-1.823-1.074v-0.25l3.847-0.974l0.101,0.05
			v17.685L142.896,24.125z"/>
		<path  d="M148.068,24.649c-1.898,0-2.448-0.849-2.448-2.623v-7.644h-1.748v-0.325l1.948-1.299l1.474-2.273
			h0.425v2.822h3.797v1.074h-3.797v6.794c0,0.899,0.074,1.474,0.6,1.823c0.35,0.2,0.974,0.3,1.848,0.3c0.4,0,0.875-0.025,1.399-0.05
			l0.024,0.25C150.491,24.174,149.242,24.649,148.068,24.649z"/>
		<path  d="M164.881,23.7v0.25l-3.497,0.874l-0.101-0.05l0.05-1.973l-0.1-0.05
			c-1.499,1.399-2.922,2.098-4.271,2.098c-2.248,0-3.072-1.698-3.072-3.472v-6.544l-1.623-0.875v-0.225l3.646-0.899l0.1,0.075v7.394
			c0,1.923,0.675,2.823,2.323,2.823c1.049,0,1.799-0.225,2.798-0.799v-7.494l-1.648-0.875v-0.225l3.646-0.899l0.1,0.075V23.05
			L164.881,23.7z"/>
		<path  d="M173.45,15.657c-0.674,0-1.224-0.524-1.349-1.324c-0.924,0.075-1.873,0.799-2.223,1.624v7.718
			l1.724,0.45v0.325h-5.496v-0.325l1.649-0.45v-8.667l-1.624-1.049v-0.225l3.497-0.899l0.1,0.075l-0.05,2.448l0.1,0.075
			c0.8-1.549,2.124-2.573,3.272-2.573c1.124,0,1.674,0.699,1.674,1.449C174.725,15.107,174.2,15.657,173.45,15.657z"/>
		<path  d="M178.249,17.705c0,3.322,1.124,5.595,3.946,5.595c1.224,0,2.248-0.275,3.672-0.999l0.149,0.299
			c-1.548,1.474-2.947,2.248-4.57,2.248c-3.197,0-5.471-2.348-5.471-5.82c0-3.522,2.423-6.169,5.521-6.169
			c3.097,0,4.646,2.073,4.646,4.846H178.249z M183.744,17.005c-0.175-2.148-0.874-3.597-2.423-3.597
			c-1.599,0-2.897,1.499-3.048,3.772L183.744,17.005z"/>
		<path  d="M188.692,27.546l-0.25-0.299c1.398-1.174,1.873-1.999,2.073-2.723l-0.05-0.025l-0.3,0.075
			c-0.175,0.05-0.325,0.075-0.5,0.075c-0.699,0-1.198-0.549-1.198-1.274c0-0.824,0.649-1.523,1.498-1.523
			c1.074,0,1.724,0.849,1.724,2.073C191.689,25.174,190.74,26.547,188.692,27.546z"/>
		<path  d="M212.399,12.984l-1.924-2.123c-0.874-0.974-1.198-1.499-2.772-1.499h-3.197v6.819h1.474
			c1.499,0,2.073-0.625,2.523-2.373l0.225-0.824h0.375v7.019h-0.375l-0.225-0.774c-0.45-1.749-1.024-2.348-2.523-2.348h-1.474v6.694
			l2.623,0.449v0.425h-7.618v-0.425l2.473-0.449V9.412l-2.473-0.45V8.538h12.539l0.6,4.271L212.399,12.984z"/>
		<path  d="M219.546,24.849c-3.522,0-5.445-2.573-5.445-5.995c0-3.197,2.148-5.995,5.795-5.995
			c3.572,0,5.421,2.498,5.421,5.92C225.316,21.977,223.218,24.849,219.546,24.849z M219.621,13.409c-1.724,0-3.098,1.773-3.098,5.52
			c0,3.647,1.523,5.371,3.272,5.371c1.849,0,3.097-1.773,3.097-5.52C222.893,15.132,221.494,13.409,219.621,13.409z"/>
		<path  d="M232.513,24.849c-3.522,0-5.445-2.573-5.445-5.995c0-3.197,2.148-5.995,5.795-5.995
			c3.572,0,5.421,2.498,5.421,5.92C238.283,21.977,236.185,24.849,232.513,24.849z M232.588,13.409c-1.724,0-3.098,1.773-3.098,5.52
			c0,3.647,1.523,5.371,3.272,5.371c1.849,0,3.097-1.773,3.097-5.52C235.859,15.132,234.461,13.409,232.588,13.409z"/>
		<path  d="M252.023,23.7v0.25l-3.372,0.924l-0.124-0.05l-0.2-1.648l-0.1-0.05l-0.625,0.549
			c-0.725,0.674-1.623,1.174-2.947,1.174c-2.298,0-4.546-1.948-4.546-5.645c0-3.247,2.098-6.344,6.27-6.344
			c0.774,0,1.299,0.05,1.898,0.175V8.238l-1.823-1.074v-0.25l3.821-0.974l0.1,0.05v17.06L252.023,23.7z M245.929,23.4
			c0.949,0,1.749-0.325,2.349-0.949v-7.469c-0.625-0.924-1.499-1.524-2.673-1.524c-1.599,0-3.272,1.574-3.272,5.321
			C242.332,21.527,243.806,23.4,245.929,23.4z"/>
	</g>
	<g>
		<path  d="M76.931,47.467c0,0.725,0.599,0.949,2.098,0.799l0.05,0.275c-0.475,0.325-1.724,0.749-2.623,0.749
			c-0.949,0-1.449-0.524-1.524-1.848l-0.1-0.05c-1.149,1.149-2.423,1.898-3.772,1.898c-1.624,0-2.673-0.949-2.673-2.473
			c0-2.248,2.673-3.472,6.445-3.972v-1.874c0-1.673-1.074-2.547-2.573-2.547c-0.549,0-1.199,0.125-1.848,0.375
			c0.549,0.45,0.774,0.974,0.774,1.449c0,0.625-0.475,1.199-1.174,1.199c-0.749,0-1.199-0.574-1.199-1.224
			c0-1.574,2.598-2.897,4.971-2.897c2.198,0,3.147,1.174,3.147,3.422V47.467z M74.833,43.57c-3.197,0-4.247,1.149-4.247,2.498
			c0,1.074,0.699,1.724,1.798,1.724c0.674,0,1.524-0.25,2.448-0.75V43.57z"/>
		<path  d="M90.796,48.116l1.649,0.45v0.325h-5.321v-0.325l1.574-0.45v-6.27c0-1.898-0.674-2.798-2.348-2.798
			c-1.049,0-1.798,0.2-2.797,0.774v8.293l1.549,0.45v0.325h-5.321v-0.325l1.649-0.45v-8.667l-1.624-1.049v-0.225l3.497-0.899
			l0.1,0.075l-0.05,1.998l0.1,0.05c1.499-1.399,2.923-2.098,4.271-2.098c2.248,0,3.072,1.698,3.072,3.472V48.116z"/>
		<path  d="M105.736,48.141v0.25l-3.372,0.924l-0.125-0.05l-0.2-1.648l-0.1-0.05l-0.625,0.549
			c-0.725,0.674-1.624,1.174-2.948,1.174c-2.298,0-4.546-1.948-4.546-5.645c0-3.247,2.098-6.344,6.27-6.344
			c0.774,0,1.299,0.05,1.898,0.175V32.68l-1.823-1.074v-0.25l3.822-0.974l0.1,0.05v17.06L105.736,48.141z M99.642,47.841
			c0.949,0,1.749-0.325,2.348-0.949v-7.469c-0.625-0.924-1.499-1.524-2.673-1.524c-1.599,0-3.272,1.574-3.272,5.321
			C96.045,45.968,97.519,47.841,99.642,47.841z"/>
		<path  d="M125.798,37.25l-0.225,0.175l-1.923-2.123c-0.899-0.974-1.224-1.499-2.772-1.499h-3.222v6.719
			h1.324c1.499,0,2.073-0.6,2.523-2.348l0.225-0.824h0.375v7.019h-0.375l-0.225-0.774c-0.45-1.749-1.024-2.373-2.523-2.373h-1.324
			v6.819h4.371c1.474,0,1.798-0.4,2.498-1.324l2.173-2.797l0.25,0.1l-0.674,4.871h-13.588v-0.425l2.473-0.449V33.854l-2.473-0.45
			v-0.425h12.514L125.798,37.25z"/>
		<path  d="M139.665,48.116l1.649,0.45v0.325h-5.321v-0.325l1.574-0.45v-6.27c0-1.898-0.674-2.798-2.348-2.798
			c-1.049,0-1.798,0.2-2.797,0.774v8.293l1.549,0.45v0.325h-5.321v-0.325l1.649-0.45v-8.667l-1.624-1.049v-0.225l3.497-0.899
			l0.1,0.075l-0.05,1.998l0.1,0.05c1.499-1.399,2.923-2.098,4.271-2.098c2.248,0,3.072,1.698,3.072,3.472V48.116z"/>
		<path  d="M148.785,46.318h0.1l1.274-3.272l1.523-4.296l-1.599-0.725V37.7h4.396v0.325l-1.824,0.774
			l-4.246,10.366h-0.6l-4.446-10.616l-1.549-0.524V37.7h5.72v0.325l-1.749,0.524L148.785,46.318z"/>
		<path  d="M155.083,38.399v-0.225l3.647-0.899l0.1,0.075v10.766l1.673,0.45v0.325h-5.521v-0.325l1.749-0.45
			v-8.667L155.083,38.399z M157.855,32.13c0.774,0,1.349,0.575,1.349,1.349c0,0.799-0.649,1.523-1.499,1.523
			c-0.774,0-1.324-0.574-1.324-1.374C156.381,32.854,157.031,32.13,157.855,32.13z"/>
		<path  d="M169.321,40.098c-0.674,0-1.224-0.524-1.349-1.324c-0.924,0.075-1.874,0.799-2.223,1.624v7.718
			l1.724,0.45v0.325h-5.496v-0.325l1.649-0.45v-8.667l-1.624-1.049v-0.225l3.497-0.899l0.1,0.075l-0.05,2.448l0.1,0.075
			c0.799-1.549,2.124-2.573,3.272-2.573c1.124,0,1.673,0.699,1.673,1.449C170.595,39.549,170.071,40.098,169.321,40.098z"/>
		<path  d="M177.292,49.29c-3.522,0-5.446-2.573-5.446-5.995c0-3.197,2.148-5.995,5.795-5.995
			c3.572,0,5.42,2.498,5.42,5.92C183.062,46.418,180.964,49.29,177.292,49.29z M177.367,37.85c-1.724,0-3.097,1.773-3.097,5.52
			c0,3.647,1.523,5.371,3.272,5.371c1.849,0,3.097-1.773,3.097-5.52C180.639,39.574,179.24,37.85,177.367,37.85z"/>
		<path  d="M195.804,48.116l1.649,0.45v0.325h-5.321v-0.325l1.574-0.45v-6.27c0-1.898-0.674-2.798-2.348-2.798
			c-1.049,0-1.798,0.2-2.797,0.774v8.293l1.549,0.45v0.325h-5.321v-0.325l1.649-0.45v-8.667l-1.624-1.049v-0.225l3.497-0.899
			l0.1,0.075l-0.05,1.998l0.1,0.05c1.499-1.399,2.923-2.098,4.271-2.098c2.248,0,3.072,1.698,3.072,3.472V48.116z"/>
		<path  d="M212.193,39.049c-1.049,0-1.674,0.35-2.673,0.924v8.143l1.648,0.45v0.325h-5.32v-0.325l1.549-0.45
			v-6.419c0-1.923-0.65-2.648-2.298-2.648c-1.049,0-1.599,0.2-2.598,0.774v8.293l1.549,0.45v0.325h-5.321v-0.325l1.649-0.45v-8.667
			l-1.624-1.049v-0.225l3.497-0.899l0.1,0.075l-0.05,1.998l0.1,0.05c1.474-1.399,2.723-2.098,4.072-2.098
			c1.624,0,2.473,1.049,2.822,2.198l0.125,0.05c1.474-1.399,2.798-2.273,4.146-2.273c2.248,0,3.022,1.724,3.022,3.497v7.344
			l1.674,0.45v0.325h-5.346v-0.325l1.574-0.45v-6.27C214.491,39.948,213.841,39.049,212.193,39.049z"/>
		<path  d="M221.814,42.146c0,3.322,1.124,5.595,3.946,5.595c1.224,0,2.248-0.275,3.672-0.999l0.15,0.299
			c-1.548,1.474-2.947,2.248-4.571,2.248c-3.197,0-5.471-2.348-5.471-5.82c0-3.522,2.423-6.169,5.521-6.169s4.646,2.073,4.646,4.846
			H221.814z M227.309,41.447c-0.175-2.148-0.874-3.597-2.423-3.597c-1.599,0-2.897,1.499-3.047,3.772L227.309,41.447z"/>
		<path  d="M242.499,48.116l1.649,0.45v0.325h-5.321v-0.325l1.574-0.45v-6.27c0-1.898-0.674-2.798-2.348-2.798
			c-1.049,0-1.798,0.2-2.797,0.774v8.293l1.549,0.45v0.325h-5.321v-0.325l1.649-0.45v-8.667l-1.624-1.049v-0.225l3.497-0.899
			l0.1,0.075l-0.05,1.998l0.1,0.05c1.499-1.399,2.923-2.098,4.271-2.098c2.248,0,3.072,1.698,3.072,3.472V48.116z"/>
		<path  d="M249.246,49.09c-1.898,0-2.448-0.849-2.448-2.623v-7.644h-1.749V38.5l1.948-1.299l1.474-2.273
			h0.425v2.822h3.797v1.074h-3.797v6.794c0,0.899,0.075,1.474,0.6,1.823c0.35,0.2,0.974,0.3,1.848,0.3c0.4,0,0.875-0.025,1.399-0.05
			l0.025,0.25C251.668,48.616,250.42,49.09,249.246,49.09z"/>
	</g>
	<g>
	</g>
	<g>
	</g>
	<g>
	</g>
	<g>
	</g>
	<g>
	</g>
	<g>
	</g>
	<g>
	</g>
	<g>
	</g>
	<g>
	</g>
	<g>
	</g>
	<g>
	</g>
	<g>
	</g>
	<g>
	</g>
	<g>
	</g>
	<g>
	</g>
</g>
		</g>
	</svg>

	<svg id="scale" display="none" preserveAspectRatio="xMinYMin meet" viewBox="0 0 328 60">
		<g id="Logos">
			<g>
				<polygon  points="24.1,27.9 21.2,27.9 21.2,12.5 24.1,12.5 24.1,8.6 10.6,8.6 10.6,12.5 13.5,12.5
					13.5,27.9 17.4,31.7 24.1,31.7 24.1,27.9 		"/>
				<polygon  points="33.7,31.7 40.5,31.7 44.3,27.9 44.3,12.5 47.2,12.5 47.2,8.6 33.7,8.6 33.7,12.5
					36.6,12.5 36.6,27.9 33.7,27.9 33.7,31.7 		"/>
				<polygon  points="47.4,35.3 55.9,26.9 59.7,26.9 59.7,23.1 45.3,23.1 45.3,26.9 46.7,26.9 40.9,32.7
					32.8,32.7 32.8,26.9 35.7,26.9 35.7,23.1 22.2,23.1 22.2,26.9 25.1,26.9 25.1,44.2 22.2,44.2 22.2,48.1 35.7,48.1 35.7,44.2
					32.8,44.2 32.8,38.5 40.9,38.5 46.7,44.2 45.3,44.2 45.3,48.1 59.7,48.1 59.7,44.2 56.4,44.2 47.4,35.3 		"/>
				<path  d="M57.3,42.3l-7-7l6.5-6.5h4.8l0-7.7l-15.4,0v-6.7h2.9V6.7H31.8h0v7.7h0h2.9v6.7H23.1v-6.7H26h0V6.7
					h0H8.7v7.7h2.9v14.4h0l0,0l4.8,4.8h6.7v8.7h-2.9V50h17.3v-7.7h-2.9v-1.9H40l3.4,3.4V50h18.3l0-7.7h0H57.3L57.3,42.3z M60.7,49.1
					H44.3v-5.8h0l-3.9-3.9h-6.7v3.9h2.9v5.8H21.2v-5.8h2.9V32.7h-7.2l-4.3-4.3V13.4h0H9.7V7.7h15.4v5.8h-2.9v8.7h13.5v-8.7h-2.9V7.7
					h15.4v5.8h-2.9v8.7h15.4v5.8h-4.3l-7.5,7.5l7.9,7.9h3.9V49.1L60.7,49.1z"/>
			</g>
		</g>
		<g id="wordmark">
			<g id="wide">
	<g>
		<path  d="M81.263,23.386c-1.668,0.886-3.023,1.381-5.395,1.381c-5.238,0-8.887-3.388-8.887-8.522
			c0-4.821,3.779-8.861,8.939-8.861c1.329,0,2.84,0.287,3.831,0.808l1.121-0.886h0.287l0.208,5.578l-0.417,0.052
			c-1.746-3.492-3.492-4.795-6.099-4.795c-2.293,0-4.848,2.242-4.848,7.663c0,5.316,2.971,8.079,6.542,8.079
			c0.782,0,1.433-0.104,2.033-0.365l2.945-3.675l0.235,0.104L81.263,23.386z"/>
		<path  d="M89.607,24.793c-3.675,0-5.682-2.685-5.682-6.255c0-3.336,2.241-6.255,6.046-6.255
			c3.727,0,5.655,2.606,5.655,6.177C95.627,21.796,93.438,24.793,89.607,24.793z M89.685,12.856c-1.798,0-3.232,1.851-3.232,5.76
			c0,3.805,1.59,5.604,3.415,5.604c1.928,0,3.231-1.851,3.231-5.76C93.099,14.655,91.64,12.856,89.685,12.856z"/>
		<path  d="M103.032,24.037v0.339h-5.76v-0.339l1.825-0.469V7.462l-1.903-1.121v-0.26l4.014-1.017l0.104,0.052
			v18.452L103.032,24.037z"/>
		<path  d="M110.044,24.037v0.339h-5.759v-0.339l1.824-0.469V7.462l-1.903-1.121v-0.26l4.014-1.017
			l0.104,0.052v18.452L110.044,24.037z"/>
		<path  d="M113.852,17.339c0,3.466,1.173,5.838,4.118,5.838c1.277,0,2.345-0.287,3.831-1.042l0.156,0.312
			c-1.616,1.538-3.075,2.346-4.77,2.346c-3.336,0-5.708-2.45-5.708-6.072c0-3.675,2.528-6.438,5.76-6.438s4.848,2.163,4.848,5.056
			H113.852z M119.585,16.609c-0.183-2.241-0.912-3.753-2.528-3.753c-1.668,0-3.023,1.564-3.179,3.936L119.585,16.609z"/>
		<path  d="M129.179,20.336c-0.756,0-1.459-0.183-1.98-0.417c-0.391,0.365-0.574,1.121-0.574,1.668
			c0,0.782,0.574,1.016,1.903,1.042l3.206,0.052c2.684,0.052,3.753,0.99,3.753,2.789c0,2.059-2.268,4.378-6.646,4.378
			c-3.388,0-5.212-1.355-5.212-2.867c0-1.095,1.095-2.137,2.763-2.685l-0.026-0.13c-1.042-0.339-1.642-1.017-1.642-1.824
			c0-0.782,0.625-1.72,2.033-2.554v-0.13c-1.329-0.651-2.189-1.694-2.189-3.31c0-2.502,2.215-4.04,4.874-4.04
			c1.199,0,2.268,0.313,3.023,0.86c1.251-0.808,2.189-1.173,2.998-1.173c0.86,0,1.303,0.521,1.303,1.173
			c0,0.651-0.521,1.225-1.173,1.225c-0.651,0-1.094-0.417-1.173-1.068l-1.511,0.183l-0.052,0.13
			c0.678,0.677,1.017,1.511,1.017,2.423C133.87,18.59,131.941,20.336,129.179,20.336z M131.264,24.506l-4.326-0.052
			c-0.678,0.443-1.121,1.277-1.121,2.189c0,1.381,1.355,2.502,3.961,2.502c2.476,0,3.909-1.355,3.909-2.685
			C133.688,25.236,132.932,24.559,131.264,24.506z M129.101,12.831c-1.407,0-2.189,1.068-2.189,3.518
			c0,2.581,0.834,3.466,2.424,3.466c1.381,0,2.189-1.459,2.189-3.466C131.524,14.368,130.664,12.831,129.101,12.831z"/>
		<path  d="M139.346,17.339c0,3.466,1.173,5.838,4.118,5.838c1.277,0,2.346-0.287,3.832-1.042l0.156,0.312
			c-1.616,1.538-3.075,2.346-4.77,2.346c-3.336,0-5.708-2.45-5.708-6.072c0-3.675,2.528-6.438,5.76-6.438s4.848,2.163,4.848,5.056
			H139.346z M145.08,16.609c-0.183-2.241-0.912-3.753-2.528-3.753c-1.668,0-3.023,1.564-3.179,3.936L145.08,16.609z"/>
		<path  d="M161.138,24.793c-3.675,0-5.682-2.685-5.682-6.255c0-3.336,2.241-6.255,6.046-6.255
			c3.727,0,5.655,2.606,5.655,6.177C167.158,21.796,164.969,24.793,161.138,24.793z M161.216,12.856
			c-1.798,0-3.232,1.851-3.232,5.76c0,3.805,1.59,5.604,3.415,5.604c1.928,0,3.231-1.851,3.231-5.76
			C164.63,14.655,163.171,12.856,161.216,12.856z"/>
		<path  d="M173.287,13.899v9.669l2.111,0.469v0.339h-6.046v-0.339l1.72-0.469v-9.669h-2.346v-0.443
			l2.346-0.678v-1.251c0-2.554,0.704-4.04,2.033-5.187c0.938-0.834,2.085-1.251,3.284-1.251c1.381,0,2.111,0.652,2.111,1.46
			c0,0.808-0.521,1.329-1.303,1.329c-0.808,0-1.538-0.521-2.319-1.903c-1.095,0.652-1.59,2.007-1.59,4.561v2.319h3.232v1.042
			H173.287z"/>
		<path  d="M199.195,23.933v0.443h-7.427v-0.443l2.58-0.469l-1.929-5.187h-5.708l-1.876,5.03l1.876,0.625
			v0.443h-4.717v-0.443l1.851-0.704l5.994-15.611h1.225l6.02,15.715L199.195,23.933z M189.579,10.693h-0.052l-2.502,6.724h5.056
			L189.579,10.693z"/>
		<path  d="M204.933,20.336c-0.756,0-1.459-0.183-1.98-0.417c-0.391,0.365-0.574,1.121-0.574,1.668
			c0,0.782,0.574,1.016,1.903,1.042l3.206,0.052c2.685,0.052,3.753,0.99,3.753,2.789c0,2.059-2.268,4.378-6.646,4.378
			c-3.388,0-5.212-1.355-5.212-2.867c0-1.095,1.095-2.137,2.763-2.685l-0.026-0.13c-1.042-0.339-1.642-1.017-1.642-1.824
			c0-0.782,0.625-1.72,2.033-2.554v-0.13c-1.329-0.651-2.189-1.694-2.189-3.31c0-2.502,2.215-4.04,4.874-4.04
			c1.199,0,2.267,0.313,3.023,0.86c1.251-0.808,2.189-1.173,2.997-1.173c0.86,0,1.303,0.521,1.303,1.173
			c0,0.651-0.521,1.225-1.173,1.225c-0.651,0-1.094-0.417-1.172-1.068l-1.512,0.183l-0.052,0.13
			c0.678,0.677,1.017,1.511,1.017,2.423C209.625,18.59,207.696,20.336,204.933,20.336z M207.018,24.506l-4.326-0.052
			c-0.678,0.443-1.121,1.277-1.121,2.189c0,1.381,1.355,2.502,3.961,2.502c2.476,0,3.909-1.355,3.909-2.685
			C209.442,25.236,208.686,24.559,207.018,24.506z M204.855,12.831c-1.407,0-2.189,1.068-2.189,3.518
			c0,2.581,0.834,3.466,2.423,3.466c1.381,0,2.189-1.459,2.189-3.466C207.279,14.368,206.419,12.831,204.855,12.831z"/>
		<path  d="M220.365,15.202c-0.704,0-1.277-0.547-1.407-1.381c-0.964,0.078-1.955,0.834-2.32,1.694v8.053
			l1.798,0.469v0.339h-5.733v-0.339l1.72-0.469v-9.043l-1.694-1.095v-0.234l3.649-0.938l0.104,0.078l-0.052,2.554l0.104,0.078
			c0.834-1.616,2.215-2.685,3.414-2.685c1.173,0,1.746,0.729,1.746,1.512C221.694,14.629,221.147,15.202,220.365,15.202z"/>
		<path  d="M223.104,13.43v-0.234l3.805-0.938l0.104,0.078v11.232l1.746,0.469v0.339H223v-0.339l1.824-0.469
			v-9.043L223.104,13.43z M225.997,6.888c0.808,0,1.407,0.6,1.407,1.408c0,0.834-0.677,1.59-1.563,1.59
			c-0.808,0-1.381-0.6-1.381-1.434C224.459,7.644,225.137,6.888,225.997,6.888z"/>
		<path  d="M238.925,16.192c-0.938,0-1.486-0.782-1.486-1.563c0-0.573,0.235-1.147,0.574-1.538
			c-0.365-0.079-0.652-0.104-1.095-0.104c-2.189,0-4.248,1.538-4.248,5.265c0,2.763,1.485,4.926,4.144,4.926
			c1.277,0,2.45-0.365,3.674-0.964l0.13,0.339c-1.225,1.329-2.893,2.241-4.561,2.241c-3.362,0-5.734-2.424-5.734-6.046
			s2.685-6.463,6.411-6.463c2.164,0,3.597,1.042,3.597,2.346C240.333,15.515,239.733,16.192,238.925,16.192z"/>
		<path  d="M255.035,23.594v0.26l-3.648,0.913l-0.104-0.052l0.052-2.059l-0.104-0.052
			c-1.564,1.46-3.049,2.189-4.457,2.189c-2.346,0-3.206-1.772-3.206-3.623v-6.828l-1.694-0.913v-0.234l3.805-0.938l0.104,0.078
			v7.714c0,2.007,0.704,2.945,2.424,2.945c1.095,0,1.876-0.234,2.919-0.834v-7.818l-1.72-0.913v-0.234l3.805-0.938l0.104,0.078
			v10.581L255.035,23.594z"/>
		<path  d="M261.918,24.037v0.339h-5.76v-0.339l1.825-0.469V7.462l-1.903-1.121v-0.26l4.014-1.017l0.104,0.052
			v18.452L261.918,24.037z"/>
		<path  d="M267.315,24.584c-1.98,0-2.554-0.886-2.554-2.736v-7.975h-1.824v-0.339l2.033-1.355l1.538-2.372
			h0.443v2.945h3.961v1.121h-3.961v7.089c0,0.938,0.078,1.538,0.625,1.902c0.365,0.208,1.016,0.313,1.929,0.313
			c0.417,0,0.912-0.026,1.459-0.052l0.026,0.261C269.843,24.089,268.54,24.584,267.315,24.584z"/>
		<path  d="M284.856,23.594v0.26l-3.648,0.913l-0.104-0.052l0.052-2.059l-0.104-0.052
			c-1.564,1.46-3.049,2.189-4.457,2.189c-2.345,0-3.206-1.772-3.206-3.623v-6.828l-1.694-0.913v-0.234l3.805-0.938l0.104,0.078
			v7.714c0,2.007,0.704,2.945,2.424,2.945c1.095,0,1.876-0.234,2.919-0.834v-7.818l-1.72-0.913v-0.234l3.805-0.938l0.104,0.078
			v10.581L284.856,23.594z"/>
		<path  d="M293.799,15.202c-0.704,0-1.277-0.547-1.407-1.381c-0.964,0.078-1.955,0.834-2.32,1.694v8.053
			l1.798,0.469v0.339h-5.733v-0.339l1.72-0.469v-9.043l-1.694-1.095v-0.234l3.649-0.938l0.104,0.078l-0.052,2.554l0.104,0.078
			c0.834-1.616,2.215-2.685,3.414-2.685c1.173,0,1.746,0.729,1.746,1.512C295.128,14.629,294.581,15.202,293.799,15.202z"/>
		<path  d="M298.806,17.339c0,3.466,1.173,5.838,4.118,5.838c1.277,0,2.345-0.287,3.831-1.042l0.156,0.312
			c-1.616,1.538-3.075,2.346-4.77,2.346c-3.336,0-5.708-2.45-5.708-6.072c0-3.675,2.528-6.438,5.76-6.438s4.848,2.163,4.848,5.056
			H298.806z M304.54,16.609c-0.183-2.241-0.912-3.753-2.528-3.753c-1.668,0-3.023,1.564-3.179,3.936L304.54,16.609z"/>
		<path  d="M309.702,27.607l-0.26-0.312c1.459-1.225,1.955-2.085,2.163-2.841l-0.052-0.026l-0.312,0.078
			c-0.183,0.052-0.339,0.078-0.521,0.078c-0.729,0-1.251-0.573-1.251-1.329c0-0.86,0.678-1.59,1.563-1.59
			c1.121,0,1.798,0.886,1.798,2.163C312.83,25.132,311.839,26.565,309.702,27.607z"/>
	</g>
	<g>
		<path  d="M79.87,37.723l-2.007-2.215c-0.912-1.017-1.251-1.563-2.893-1.563h-3.336v7.115h1.538
			c1.563,0,2.163-0.652,2.632-2.476l0.234-0.86h0.391v7.323h-0.391l-0.234-0.808c-0.469-1.825-1.069-2.45-2.632-2.45h-1.538v6.985
			l2.736,0.469v0.443h-7.949v-0.443l2.581-0.469V33.996l-2.581-0.469v-0.443h13.083l0.625,4.457L79.87,37.723z"/>
		<path  d="M87.328,50.103c-3.675,0-5.682-2.685-5.682-6.255c0-3.336,2.241-6.255,6.046-6.255
			c3.727,0,5.655,2.606,5.655,6.177C93.348,47.105,91.159,50.103,87.328,50.103z M87.406,38.166c-1.798,0-3.232,1.851-3.232,5.76
			c0,3.805,1.59,5.604,3.415,5.604c1.928,0,3.231-1.851,3.231-5.76C90.82,39.964,89.36,38.166,87.406,38.166z"/>
		<path  d="M100.857,50.103c-3.675,0-5.682-2.685-5.682-6.255c0-3.336,2.241-6.255,6.046-6.255
			c3.727,0,5.655,2.606,5.655,6.177C106.877,47.105,104.688,50.103,100.857,50.103z M100.935,38.166
			c-1.798,0-3.232,1.851-3.232,5.76c0,3.805,1.59,5.604,3.415,5.604c1.928,0,3.231-1.851,3.231-5.76
			C104.349,39.964,102.89,38.166,100.935,38.166z"/>
		<path  d="M121.215,48.904v0.26l-3.519,0.964l-0.13-0.052l-0.208-1.72l-0.104-0.052l-0.651,0.573
			c-0.756,0.704-1.694,1.225-3.076,1.225c-2.397,0-4.743-2.033-4.743-5.89c0-3.388,2.189-6.62,6.542-6.62
			c0.808,0,1.355,0.052,1.981,0.183v-5.004l-1.902-1.121v-0.26l3.987-1.017l0.104,0.052v17.8L121.215,48.904z M114.856,48.591
			c0.99,0,1.824-0.339,2.45-0.99v-7.792c-0.651-0.964-1.564-1.59-2.789-1.59c-1.668,0-3.414,1.642-3.414,5.551
			C111.103,46.636,112.641,48.591,114.856,48.591z"/>
		<path  d="M137.639,48.2c0,0.756,0.625,0.99,2.189,0.834l0.052,0.287c-0.495,0.339-1.798,0.782-2.737,0.782
			c-0.99,0-1.511-0.547-1.589-1.929l-0.104-0.052c-1.199,1.199-2.528,1.98-3.936,1.98c-1.694,0-2.789-0.99-2.789-2.58
			c0-2.346,2.789-3.623,6.724-4.144v-1.955c0-1.746-1.121-2.658-2.685-2.658c-0.573,0-1.251,0.13-1.928,0.391
			c0.573,0.469,0.808,1.017,0.808,1.512c0,0.652-0.495,1.251-1.225,1.251c-0.782,0-1.251-0.599-1.251-1.277
			c0-1.642,2.71-3.023,5.186-3.023c2.293,0,3.284,1.225,3.284,3.571V48.2z M135.449,44.134c-3.336,0-4.431,1.199-4.431,2.606
			c0,1.121,0.73,1.798,1.876,1.798c0.704,0,1.59-0.261,2.554-0.782V44.134z"/>
		<path  d="M152.106,48.877l1.72,0.469v0.339h-5.551v-0.339l1.642-0.469v-6.542c0-1.98-0.704-2.919-2.45-2.919
			c-1.094,0-1.876,0.208-2.919,0.808v8.652l1.616,0.469v0.339h-5.551v-0.339l1.72-0.469v-9.043l-1.694-1.095v-0.234l3.649-0.938
			l0.104,0.078l-0.052,2.085l0.104,0.052c1.563-1.46,3.049-2.189,4.457-2.189c2.346,0,3.206,1.772,3.206,3.623V48.877z"/>
		<path  d="M167.694,48.904v0.26l-3.519,0.964l-0.13-0.052l-0.208-1.72l-0.104-0.052l-0.651,0.573
			c-0.756,0.704-1.694,1.225-3.076,1.225c-2.397,0-4.743-2.033-4.743-5.89c0-3.388,2.189-6.62,6.542-6.62
			c0.808,0,1.355,0.052,1.981,0.183v-5.004l-1.902-1.121v-0.26l3.987-1.017l0.104,0.052v17.8L167.694,48.904z M161.335,48.591
			c0.99,0,1.824-0.339,2.45-0.99v-7.792c-0.651-0.964-1.564-1.59-2.789-1.59c-1.668,0-3.414,1.642-3.414,5.551
			C157.583,46.636,159.12,48.591,161.335,48.591z"/>
		<path  d="M188.627,37.541l-0.234,0.183l-2.007-2.215c-0.938-1.017-1.277-1.563-2.893-1.563h-3.362v7.01
			h1.381c1.564,0,2.163-0.625,2.632-2.45l0.234-0.86h0.391v7.323h-0.391l-0.234-0.808c-0.469-1.824-1.068-2.476-2.632-2.476h-1.381
			v7.115h4.561c1.538,0,1.876-0.417,2.606-1.381l2.268-2.919l0.261,0.104l-0.704,5.082h-14.178v-0.443l2.581-0.469V33.996
			l-2.581-0.469v-0.443h13.057L188.627,37.541z"/>
		<path  d="M203.095,48.877l1.72,0.469v0.339h-5.551v-0.339l1.642-0.469v-6.542c0-1.98-0.704-2.919-2.45-2.919
			c-1.094,0-1.876,0.208-2.919,0.808v8.652l1.616,0.469v0.339h-5.551v-0.339l1.72-0.469v-9.043l-1.694-1.095v-0.234l3.649-0.938
			l0.104,0.078l-0.052,2.085l0.104,0.052c1.563-1.46,3.049-2.189,4.457-2.189c2.346,0,3.206,1.772,3.206,3.623V48.877z"/>
		<path  d="M212.612,47.001h0.104l1.329-3.414l1.59-4.482l-1.668-0.756V38.01h4.587v0.339l-1.902,0.808
			l-4.431,10.816h-0.625l-4.639-11.076l-1.616-0.547V38.01h5.968v0.339l-1.824,0.547L212.612,47.001z"/>
		<path  d="M219.183,38.739v-0.234l3.805-0.938l0.104,0.078v11.232l1.746,0.469v0.339h-5.76v-0.339
			l1.824-0.469v-9.043L219.183,38.739z M222.075,32.198c0.808,0,1.407,0.6,1.407,1.408c0,0.834-0.677,1.59-1.563,1.59
			c-0.808,0-1.381-0.6-1.381-1.434C220.538,32.954,221.215,32.198,222.075,32.198z"/>
		<path  d="M234.04,40.512c-0.704,0-1.277-0.547-1.407-1.381c-0.964,0.078-1.955,0.834-2.32,1.694v8.053
			l1.798,0.469v0.339h-5.733v-0.339l1.72-0.469v-9.043l-1.694-1.095v-0.234l3.649-0.938l0.104,0.078l-0.052,2.554l0.104,0.078
			c0.834-1.616,2.215-2.685,3.414-2.685c1.173,0,1.746,0.729,1.746,1.512C235.369,39.938,234.821,40.512,234.04,40.512z"/>
		<path  d="M242.356,50.103c-3.675,0-5.682-2.685-5.682-6.255c0-3.336,2.241-6.255,6.046-6.255
			c3.727,0,5.655,2.606,5.655,6.177C248.376,47.105,246.187,50.103,242.356,50.103z M242.434,38.166
			c-1.798,0-3.232,1.851-3.232,5.76c0,3.805,1.59,5.604,3.415,5.604c1.928,0,3.231-1.851,3.231-5.76
			C245.848,39.964,244.389,38.166,242.434,38.166z"/>
		<path  d="M261.671,48.877l1.72,0.469v0.339h-5.551v-0.339l1.642-0.469v-6.542c0-1.98-0.704-2.919-2.45-2.919
			c-1.094,0-1.876,0.208-2.919,0.808v8.652l1.616,0.469v0.339h-5.551v-0.339l1.72-0.469v-9.043l-1.694-1.095v-0.234l3.649-0.938
			l0.104,0.078l-0.052,2.085l0.104,0.052c1.563-1.46,3.049-2.189,4.457-2.189c2.346,0,3.206,1.772,3.206,3.623V48.877z"/>
		<path  d="M278.771,39.417c-1.095,0-1.746,0.365-2.789,0.964v8.496l1.72,0.469v0.339h-5.551v-0.339
			l1.616-0.469V42.18c0-2.007-0.678-2.763-2.398-2.763c-1.094,0-1.668,0.208-2.71,0.808v8.652l1.616,0.469v0.339h-5.551v-0.339
			l1.72-0.469v-9.043l-1.694-1.095v-0.234l3.649-0.938l0.104,0.078l-0.052,2.085l0.104,0.052c1.538-1.46,2.841-2.189,4.248-2.189
			c1.694,0,2.58,1.095,2.945,2.293l0.13,0.052c1.538-1.459,2.919-2.372,4.327-2.372c2.345,0,3.153,1.798,3.153,3.648v7.662
			l1.746,0.469v0.339h-5.577v-0.339l1.642-0.469v-6.542C281.169,40.355,280.492,39.417,278.771,39.417z"/>
		<path  d="M288.811,42.649c0,3.466,1.173,5.838,4.118,5.838c1.277,0,2.345-0.287,3.831-1.042l0.156,0.312
			c-1.616,1.538-3.075,2.346-4.77,2.346c-3.336,0-5.708-2.45-5.708-6.072c0-3.675,2.528-6.438,5.76-6.438s4.848,2.163,4.848,5.056
			H288.811z M294.544,41.919c-0.183-2.241-0.912-3.753-2.528-3.753c-1.668,0-3.023,1.564-3.179,3.936L294.544,41.919z"/>
		<path  d="M310.393,48.877l1.72,0.469v0.339h-5.551v-0.339l1.642-0.469v-6.542c0-1.98-0.704-2.919-2.45-2.919
			c-1.094,0-1.876,0.208-2.919,0.808v8.652l1.616,0.469v0.339h-5.551v-0.339l1.72-0.469v-9.043l-1.694-1.095v-0.234l3.649-0.938
			l0.104,0.078l-0.052,2.085l0.104,0.052c1.563-1.46,3.049-2.189,4.457-2.189c2.346,0,3.206,1.772,3.206,3.623V48.877z"/>
		<path  d="M317.433,49.894c-1.98,0-2.554-0.886-2.554-2.736v-7.975h-1.824v-0.339l2.033-1.355l1.538-2.372
			h0.443v2.945h3.961v1.121h-3.961v7.089c0,0.938,0.078,1.538,0.625,1.902c0.365,0.208,1.016,0.313,1.929,0.313
			c0.417,0,0.912-0.026,1.459-0.052l0.026,0.261C319.961,49.399,318.658,49.894,317.433,49.894z"/>
	</g>
</g>
		</g>
	</svg>


</svg>
