<?xml version="1.0" encoding="UTF-8"?>
<svg id="Layer_1" data-name="Layer 1" xmlns="http://www.w3.org/2000/svg" viewBox="0 0 1300.74 278.57">
  <defs>
    <style>
      .cls-1 {
        fill: #fff;
      }
    </style>
  </defs>
  <g>
    <path class="cls-1" d="M383.28,168.85c0-15.77,9.08-27.81,24.64-27.81,9.36,0,16.47,4.44,20.56,11.62l-5.84,3.45c-2.89-5.42-7.68-8.94-14.64-8.94-11.83,0-17.46,10.07-17.46,21.61s5.49,21.75,17.81,21.75c7.04,0,11.9-3.59,14.71-8.8l5.7,3.24c-4.01,7.11-11.12,11.69-20.63,11.69-15.77,0-24.85-12.04-24.85-27.81Z"/>
    <path class="cls-1" d="M436.09,177.02c0-10.98,6.76-19.71,18.59-19.71s18.52,8.87,18.52,19.71-6.62,19.64-18.52,19.64-18.59-8.73-18.59-19.64Zm6.76,0c0,7.46,3.94,13.94,11.76,13.94s11.83-6.48,11.83-13.94-4.01-14.01-11.83-14.01-11.76,6.48-11.76,14.01Z"/>
    <path class="cls-1" d="M484.68,195.89v-54.07h6.69v54.07h-6.69Z"/>
    <path class="cls-1" d="M505.31,195.89v-54.07h6.69v54.07h-6.69Z"/>
    <path class="cls-1" d="M556.42,190.54c-3.38,3.94-8.24,6.13-14.29,6.13-11.9,0-18.66-7.82-18.66-19.71s6.76-19.64,17.67-19.64,16.68,8.1,16.68,18.45c0,1.13-.07,2.89-.21,3.87h-27.32c.7,7.18,4.86,11.33,11.9,11.33,4.15,0,7.32-1.55,9.58-4.58l4.65,4.15Zm-5.21-16.47c-.42-6.2-3.52-11.12-10.21-11.12s-10.14,4.79-10.77,11.12h20.98Z"/>
    <path class="cls-1" d="M602.12,191.73c0,12.04-7.74,17.81-19.15,17.81-5.99,0-10.77-1.69-14.15-3.94l3.03-5.28c2.75,1.83,6.05,3.52,11.05,3.52,7.04,0,12.6-3.17,12.6-12.11v-3.24h-.14c-2.88,4.51-7.46,6.76-12.6,6.76-10,0-16.12-8.45-16.12-18.73s6.2-19.22,16.62-19.22c5.49,0,9.58,2.46,12.25,6.2h.14l.21-5.42h6.27v33.65Zm-6.48-15.56c0-7.25-4.01-13.02-11.12-13.02s-11.12,6.05-11.12,13.16,3.45,13.1,11.05,13.1,11.19-5.91,11.19-13.24Z"/>
    <path class="cls-1" d="M646.54,190.54c-3.38,3.94-8.24,6.13-14.29,6.13-11.9,0-18.66-7.82-18.66-19.71s6.76-19.64,17.67-19.64,16.68,8.1,16.68,18.45c0,1.13-.07,2.89-.21,3.87h-27.32c.7,7.18,4.86,11.33,11.9,11.33,4.15,0,7.32-1.55,9.58-4.58l4.65,4.15Zm-5.21-16.47c-.42-6.2-3.52-11.12-10.21-11.12s-10.14,4.79-10.77,11.12h20.98Z"/>
    <path class="cls-1" d="M676.76,177.02c0-10.98,6.76-19.71,18.59-19.71s18.52,8.87,18.52,19.71-6.62,19.64-18.52,19.64-18.59-8.73-18.59-19.64Zm6.76,0c0,7.46,3.94,13.94,11.76,13.94s11.83-6.48,11.83-13.94-4.01-14.01-11.83-14.01-11.76,6.48-11.76,14.01Z"/>
    <path class="cls-1" d="M728.16,163.64h-7.53v-5.56h7.53v-6.34c0-6.97,4.15-10.7,11.33-10.7,1.69,0,3.1,.21,4.44,.56v5.56c-.71-.21-1.9-.35-3.1-.35-4.36,0-5.99,1.76-5.99,5.77v5.49h9.08v5.56h-9.08v32.24h-6.69v-32.24Z"/>
    <path class="cls-1" d="M805.82,180.75h-24.08l-5.77,15.14h-7.46l21.26-54.07h8.38l21.26,54.07h-7.74l-5.84-15.14Zm-2.39-6.13l-9.64-25.13h-.14l-9.58,25.13h19.36Z"/>
    <path class="cls-1" d="M860.67,191.73c0,12.04-7.74,17.81-19.15,17.81-5.99,0-10.77-1.69-14.15-3.94l3.03-5.28c2.75,1.83,6.05,3.52,11.05,3.52,7.04,0,12.6-3.17,12.6-12.11v-3.24h-.14c-2.88,4.51-7.46,6.76-12.6,6.76-10,0-16.12-8.45-16.12-18.73s6.2-19.22,16.62-19.22c5.49,0,9.58,2.46,12.25,6.2h.14l.21-5.42h6.27v33.65Zm-6.48-15.56c0-7.25-4.01-13.02-11.12-13.02s-11.12,6.05-11.12,13.16,3.45,13.1,11.05,13.1,11.19-5.91,11.19-13.24Z"/>
    <path class="cls-1" d="M874.61,158.08h6.47l.14,5.7h.14c2.54-4.72,6.05-6.48,9.72-6.48,1.34,0,2.32,.21,3.17,.49v6.55c-.63-.21-1.97-.49-3.52-.49-6.27,0-9.43,4.44-9.43,9.08v22.95h-6.69v-37.81Z"/>
    <path class="cls-1" d="M903.9,141.82h7.25v7.25h-7.25v-7.25Zm.28,54.07v-37.81h6.69v37.81h-6.69Z"/>
    <path class="cls-1" d="M922.42,177.16c0-11.19,6.69-19.85,18.31-19.85,7.18,0,12.25,3.45,15.14,8.87l-5.56,3.17c-1.9-3.66-4.93-6.34-9.72-6.34-7.39,0-11.4,6.2-11.4,14.01s3.87,13.94,11.83,13.94c5,0,8.03-2.54,9.85-6.13l5.28,3.03c-2.67,5.28-8.02,8.8-15.34,8.8-11.62,0-18.38-8.38-18.38-19.5Z"/>
    <path class="cls-1" d="M997.62,195.89h-6.55l-.07-5.56h-.14c-2.46,3.73-6.76,6.34-12.25,6.34-8.17,0-13.31-5.28-13.31-13.23v-25.35h6.69v24.01c0,4.93,2.75,8.8,8.59,8.8,6.34,0,10.35-4.37,10.35-10.28v-22.53h6.69v37.81Z"/>
    <path class="cls-1" d="M1011.56,195.89v-54.07h6.69v54.07h-6.69Z"/>
    <path class="cls-1" d="M1027.33,158.08h7.53v-11.97h6.69v11.97h9.08v5.56h-9.08v20.7c0,4.51,1.2,6.55,6.12,6.55,1.27,0,2.19-.14,2.96-.28v5.42c-1.48,.35-3.17,.63-5.28,.63-7.18,0-10.49-3.94-10.49-10.63v-22.39h-7.53v-5.56Z"/>
    <path class="cls-1" d="M1093.02,195.89h-6.55l-.07-5.56h-.14c-2.46,3.73-6.76,6.34-12.25,6.34-8.17,0-13.31-5.28-13.31-13.23v-25.35h6.69v24.01c0,4.93,2.75,8.8,8.59,8.8,6.34,0,10.35-4.37,10.35-10.28v-22.53h6.69v37.81Z"/>
    <path class="cls-1" d="M1106.97,158.08h6.47l.14,5.7h.14c2.54-4.72,6.05-6.48,9.72-6.48,1.34,0,2.32,.21,3.17,.49v6.55c-.63-.21-1.97-.49-3.52-.49-6.27,0-9.43,4.44-9.43,9.08v22.95h-6.69v-37.81Z"/>
    <path class="cls-1" d="M1166.46,190.54c-3.38,3.94-8.24,6.13-14.29,6.13-11.9,0-18.66-7.82-18.66-19.71s6.76-19.64,17.67-19.64,16.68,8.1,16.68,18.45c0,1.13-.07,2.89-.21,3.87h-27.32c.7,7.18,4.86,11.33,11.9,11.33,4.15,0,7.32-1.55,9.58-4.58l4.65,4.15Zm-5.21-16.47c-.42-6.2-3.52-11.12-10.21-11.12s-10.14,4.79-10.77,11.12h20.98Z"/>
    <path class="cls-1" d="M1180.4,186.1h7.18l-4.86,20.13h-5.28l2.96-20.13Z"/>
    <path class="cls-1" d="M385.61,277.42v-54.07h34.64v6.2h-27.53v18.3h24.08v6.13h-24.08v23.44h-7.11Z"/>
    <path class="cls-1" d="M426.87,258.55c0-10.98,6.76-19.71,18.59-19.71s18.52,8.87,18.52,19.71-6.62,19.64-18.52,19.64-18.59-8.73-18.59-19.64Zm6.76,0c0,7.46,3.94,13.94,11.76,13.94s11.83-6.48,11.83-13.94-4.01-14.01-11.83-14.01-11.76,6.48-11.76,14.01Z"/>
    <path class="cls-1" d="M472.99,258.55c0-10.98,6.76-19.71,18.59-19.71s18.52,8.87,18.52,19.71-6.62,19.64-18.52,19.64-18.59-8.73-18.59-19.64Zm6.76,0c0,7.46,3.94,13.94,11.76,13.94s11.83-6.48,11.83-13.94-4.01-14.01-11.83-14.01-11.76,6.48-11.76,14.01Z"/>
    <path class="cls-1" d="M519.32,258.83c0-11.12,6.55-20,17.18-20,5,0,9.36,2.18,12.32,6.27h.14v-21.75h6.69v54.07h-6.55l-.07-6.13h-.14c-3.17,4.58-7.68,6.9-12.74,6.9-10.63,0-16.83-8.8-16.83-19.36Zm29.85-.35c0-8.31-4.36-13.8-11.61-13.8-7.89,0-11.48,6.69-11.48,13.94s3.59,13.73,11.26,13.73,11.83-5.84,11.83-13.87Z"/>
    <path class="cls-1" d="M611.42,277.42l-.14-5.49h-.14c-2.11,3.73-5.99,6.27-11.4,6.27-7.39,0-12.18-4.72-12.18-11.41,0-4.93,2.54-8.24,7.32-9.79,4.15-1.34,10.28-1.62,16.47-1.83v-3.38c0-3.87-2.67-7.32-8.38-7.32-4.78,0-7.53,2.25-8.73,5.7l-5.56-2.67c2.18-5.7,7.6-8.66,14.51-8.66,9.01,0,14.78,4.72,14.78,12.95v25.63h-6.55Zm-.07-14.92v-2.18c-2.53,.07-6.47,.35-9.64,.77-4.29,.56-7.46,1.76-7.46,5.63,0,3.52,2.67,5.84,7.04,5.84,6.12,0,10.06-4.65,10.06-10.07Z"/>
    <path class="cls-1" d="M631.77,239.61h6.47l.14,5.56h.14c2.4-3.8,6.62-6.34,12.25-6.34,8.17,0,13.31,5.28,13.31,13.24v25.34h-6.69v-24.01c0-4.93-2.89-8.8-8.59-8.8-6.33,0-10.35,4.36-10.35,10.28v22.53h-6.69v-37.81Z"/>
    <path class="cls-1" d="M675.63,258.83c0-11.12,6.55-20,17.18-20,5,0,9.36,2.18,12.32,6.27h.14v-21.75h6.69v54.07h-6.55l-.07-6.13h-.14c-3.17,4.58-7.68,6.9-12.74,6.9-10.63,0-16.83-8.8-16.83-19.36Zm29.85-.35c0-8.31-4.36-13.8-11.61-13.8-7.89,0-11.48,6.69-11.48,13.94s3.59,13.73,11.26,13.73,11.83-5.84,11.83-13.87Z"/>
    <path class="cls-1" d="M746.54,277.42v-54.07h34.71v6.2h-27.67v17.6h24.22v6.13h-24.22v17.95h28.16v6.2h-35.2Z"/>
    <path class="cls-1" d="M792.45,239.61h6.47l.14,5.56h.14c2.4-3.8,6.62-6.34,12.25-6.34,8.17,0,13.31,5.28,13.31,13.24v25.34h-6.69v-24.01c0-4.93-2.89-8.8-8.59-8.8-6.33,0-10.35,4.36-10.35,10.28v22.53h-6.69v-37.81Z"/>
    <path class="cls-1" d="M869.9,239.61l-14.92,37.81h-7.11l-14.85-37.81h7.32l11.12,30.13h.14l11.26-30.13h7.04Z"/>
    <path class="cls-1" d="M878.92,223.35h7.25v7.25h-7.25v-7.25Zm.28,54.07v-37.81h6.69v37.81h-6.69Z"/>
    <path class="cls-1" d="M899.83,239.61h6.47l.14,5.7h.14c2.54-4.72,6.05-6.48,9.72-6.48,1.34,0,2.32,.21,3.17,.49v6.55c-.63-.21-1.97-.49-3.52-.49-6.27,0-9.43,4.44-9.43,9.08v22.95h-6.69v-37.81Z"/>
    <path class="cls-1" d="M926.37,258.55c0-10.98,6.76-19.71,18.59-19.71s18.52,8.87,18.52,19.71-6.62,19.64-18.52,19.64-18.59-8.73-18.59-19.64Zm6.76,0c0,7.46,3.94,13.94,11.76,13.94s11.83-6.48,11.83-13.94-4.01-14.01-11.83-14.01-11.76,6.48-11.76,14.01Z"/>
    <path class="cls-1" d="M974.96,239.61h6.47l.14,5.56h.14c2.4-3.8,6.62-6.34,12.25-6.34,8.17,0,13.31,5.28,13.31,13.24v25.34h-6.69v-24.01c0-4.93-2.89-8.8-8.59-8.8-6.33,0-10.35,4.36-10.35,10.28v22.53h-6.69v-37.81Z"/>
    <path class="cls-1" d="M1027.83,244.68c2.32-3.59,5.91-5.84,11.12-5.84s9.5,2.46,11.4,6.48c2.75-4.44,7.11-6.48,12.25-6.48,7.6,0,12.6,4.79,12.6,11.97v26.61h-6.69v-25.06c0-4.36-2.53-7.74-7.81-7.74-5.63,0-9.22,3.8-9.22,9.01v23.8h-6.69v-25.06c0-4.36-2.61-7.74-7.74-7.74-5.63,0-9.29,3.8-9.29,9.01v23.8h-6.69v-37.81h6.47l.14,5.07h.14Z"/>
    <path class="cls-1" d="M1119.51,272.07c-3.38,3.94-8.24,6.13-14.29,6.13-11.9,0-18.66-7.82-18.66-19.71s6.76-19.64,17.67-19.64,16.68,8.1,16.68,18.45c0,1.13-.07,2.89-.21,3.87h-27.32c.7,7.18,4.86,11.33,11.9,11.33,4.15,0,7.32-1.55,9.58-4.58l4.65,4.15Zm-5.21-16.47c-.42-6.2-3.52-11.12-10.21-11.12s-10.14,4.79-10.77,11.12h20.98Z"/>
    <path class="cls-1" d="M1132.12,239.61h6.47l.14,5.56h.14c2.4-3.8,6.62-6.34,12.25-6.34,8.17,0,13.31,5.28,13.31,13.24v25.34h-6.69v-24.01c0-4.93-2.89-8.8-8.59-8.8-6.33,0-10.35,4.36-10.35,10.28v22.53h-6.69v-37.81Z"/>
    <path class="cls-1" d="M1173.03,239.61h7.53v-11.97h6.69v11.97h9.08v5.56h-9.08v20.7c0,4.51,1.2,6.55,6.12,6.55,1.27,0,2.19-.14,2.96-.28v5.42c-1.48,.35-3.17,.63-5.28,.63-7.18,0-10.49-3.94-10.49-10.63v-22.39h-7.53v-5.56Z"/>
  </g>
  <polygon class="cls-1" points="97.01 139.12 78.82 139.12 78.82 42.1 97.01 42.1 97.01 17.85 12.12 17.85 12.12 42.1 30.32 42.1 30.32 139.12 54.57 163.37 97.01 163.37 97.01 139.12"/>
  <polygon class="cls-1" points="157.64 163.37 200.08 163.37 224.33 139.12 224.33 42.1 242.52 42.1 242.52 17.85 157.64 17.85 157.64 42.1 175.83 42.1 175.83 139.12 157.64 139.12 157.64 163.37"/>
  <polygon class="cls-1" points="244.04 186.11 297.09 133.06 321.34 133.06 321.34 108.8 230.39 108.8 230.39 133.06 239.5 133.06 203.11 169.43 151.58 169.43 151.58 133.06 169.77 133.06 169.77 108.8 84.88 108.8 84.88 133.06 103.07 133.06 103.07 242.19 84.88 242.19 84.88 266.44 169.77 266.44 169.77 242.19 151.58 242.19 151.58 205.81 203.11 205.81 239.49 242.19 230.39 242.19 230.39 266.44 321.34 266.44 321.34 242.19 300.12 242.19 244.04 186.11"/>
  <path class="cls-1" d="M327.41,272.51h-103.07v-36.38h0l-24.25-24.26h-42.44v24.26h18.19v36.38H78.82v-36.38h18.19v-66.7H51.54l-27.28-27.29V48.17H6.06V11.79H103.07V48.17h-18.19v54.56h84.89V48.17h-18.19V11.79h97.01V48.17h-18.19v54.56h97.01v36.38h-27.28l-46.99,46.99,50.02,50.02h24.25v36.38Zm-21.22-42.45l-43.96-43.96,40.92-40.93h30.32v-48.51s-97.01,0-97.01,0V54.23h18.19V5.73h-109.14V54.23h18.19v42.45H90.94V54.23h18.2V5.73H0V54.23H18.19v90.95h0s30.31,30.32,30.31,30.32h42.45v54.57h-18.19v48.51h109.14v-48.51h-18.19v-12.13h33.35l21.22,21.23v39.41h115.2v-48.51s0,0,0,0h-27.28Z"/>
  <path class="cls-1" d="M339.07,271.36c0-1.02,.19-1.97,.57-2.85,.38-.88,.9-1.64,1.55-2.28,.66-.64,1.42-1.14,2.29-1.51,.87-.37,1.79-.55,2.77-.55s1.9,.18,2.77,.55,1.63,.87,2.29,1.51c.66,.64,1.17,1.4,1.55,2.28,.38,.88,.57,1.83,.57,2.85s-.19,1.98-.57,2.86c-.38,.88-.9,1.63-1.55,2.27-.66,.64-1.42,1.14-2.29,1.51s-1.79,.55-2.77,.55-1.9-.18-2.77-.55c-.87-.37-1.63-.87-2.29-1.51-.66-.64-1.17-1.39-1.55-2.27-.38-.87-.57-1.83-.57-2.86Zm1.27,0c0,.87,.15,1.69,.46,2.43,.31,.75,.73,1.39,1.25,1.94,.53,.55,1.15,.98,1.87,1.29,.72,.32,1.49,.47,2.32,.47s1.59-.16,2.31-.47c.72-.32,1.34-.75,1.87-1.29,.53-.55,.96-1.19,1.26-1.94,.31-.75,.46-1.56,.46-2.43s-.15-1.67-.46-2.42c-.31-.75-.73-1.4-1.26-1.95-.53-.55-1.16-.98-1.87-1.29-.71-.32-1.48-.47-2.31-.47s-1.6,.16-2.32,.47c-.72,.32-1.34,.75-1.87,1.29-.53,.55-.95,1.2-1.25,1.95-.31,.75-.46,1.56-.46,2.42Zm3.17-4.21h3.17c1.96,0,2.93,.8,2.93,2.39,0,.76-.21,1.32-.64,1.67-.43,.35-.95,.56-1.58,.63l2.41,3.71h-1.37l-2.28-3.61h-1.37v3.61h-1.27v-8.4Zm1.27,3.74h1.31c.28,0,.56,0,.83-.03,.27-.02,.51-.07,.71-.16,.21-.09,.37-.23,.5-.43,.13-.19,.19-.46,.19-.79,0-.28-.06-.51-.17-.68-.12-.17-.26-.31-.44-.4-.18-.09-.38-.15-.6-.17-.22-.03-.44-.04-.66-.04h-1.68v2.7Z"/>
  <g>
    <path class="cls-1" d="M503.27,101.18v2.63h-46.1v-2.63l15.32-2.78V13.15h-1.08l-36.2,90.66h-3.71L393.73,13.15h-1.09V97l12.23,4.18v2.63h-29.55v-2.63l12.23-4.18V10.98l-12.23-3.09v-2.63h32.49l6.03,15.94,24.75,61.11h.77l24.14-61.11,5.73-15.94h34.03v2.63l-15.32,2.78V98.4l15.32,2.78Z"/>
    <path class="cls-1" d="M565.32,94.99c0,4.49,3.71,5.88,13,4.95l.31,1.7c-2.94,2.01-10.68,4.64-16.25,4.64-5.88,0-8.98-3.25-9.44-11.45l-.62-.31c-7.12,7.12-15.01,11.76-23.36,11.76-10.06,0-16.56-5.88-16.56-15.32,0-13.93,16.56-21.51,39.92-24.6v-11.6c0-10.36-6.65-15.78-15.93-15.78-3.41,0-7.43,.77-11.45,2.32,3.41,2.78,4.8,6.03,4.8,8.97,0,3.87-2.94,7.43-7.27,7.43-4.64,0-7.43-3.56-7.43-7.58,0-9.75,16.09-17.95,30.79-17.95,13.61,0,19.5,7.27,19.5,21.19v41.62Zm-13-24.14c-19.8,0-26.3,7.12-26.3,15.47,0,6.65,4.34,10.68,11.14,10.68,4.18,0,9.44-1.55,15.16-4.64v-21.51Z"/>
    <path class="cls-1" d="M626.44,49.35c-4.18,0-7.58-3.25-8.36-8.2-5.72,.47-11.6,4.95-13.77,10.06v47.81l10.68,2.78v2.01h-34.04v-2.01l10.21-2.78V45.33l-10.06-6.5v-1.39l21.66-5.57,.62,.47-.31,15.16,.62,.46c4.95-9.59,13.15-15.93,20.27-15.93s10.36,4.33,10.36,8.97c0,4.95-3.25,8.35-7.89,8.35Z"/>
    <path class="cls-1" d="M663.58,105.05c-11.76,0-15.16-5.26-15.16-16.25V41.46h-10.83v-2.01l12.07-8.05,9.13-14.08h2.63v17.48h23.52v6.65h-23.52v42.08c0,5.57,.46,9.13,3.71,11.29,2.16,1.24,6.03,1.86,11.45,1.86,2.48,0,5.41-.15,8.66-.31l.16,1.55c-6.81,4.18-14.54,7.12-21.82,7.12Z"/>
    <path class="cls-1" d="M689.88,38.83v-1.39l22.59-5.57,.62,.47V99.02l10.36,2.78v2.01h-34.19v-2.01l10.83-2.78V45.33l-10.21-6.5ZM707.05,0c4.8,0,8.36,3.56,8.36,8.35s-4.02,9.44-9.28,9.44c-4.8,0-8.2-3.56-8.2-8.51s4.02-9.28,9.13-9.28Z"/>
    <path class="cls-1" d="M798.8,99.02l10.21,2.78v2.01h-32.96v-2.01l9.75-2.78V60.18c0-11.76-4.18-17.33-14.54-17.33-6.5,0-11.14,1.24-17.33,4.8v51.37l9.59,2.78v2.01h-32.95v-2.01l10.21-2.78V45.33l-10.06-6.5v-1.39l21.66-5.57,.62,.47-.31,12.38,.62,.31c9.28-8.66,18.1-13,26.46-13,13.93,0,19.03,10.52,19.03,21.5v45.49Z"/>
    <path class="cls-1" d="M817.38,71.94v-8.82h36.52v8.82h-36.52Z"/>
    <path class="cls-1" d="M954.3,35.89c-10.21-20.42-21.04-28.47-34.66-28.47-14.85,0-29.86,13.3-29.86,45.48s15.32,47.03,36.51,47.03c6.66,0,12.69-2.01,17.64-4.49v-28.47l-13.31-2.78v-2.63h40.07v2.63l-11.29,2.78v38.06l-1.55,.62-11.45-7.43c-7.27,4.8-15.93,7.89-26.15,7.89-28.16,0-48.27-20.73-48.27-50.59s22.43-52.6,52.91-52.6c7.89,0,16.4,1.7,22.28,4.8l6.81-5.26h1.7l1.08,33.11-2.48,.31Z"/>
    <path class="cls-1" d="M1029.97,94.99c0,4.49,3.71,5.88,13,4.95l.31,1.7c-2.94,2.01-10.68,4.64-16.25,4.64-5.88,0-8.98-3.25-9.44-11.45l-.62-.31c-7.12,7.12-15.01,11.76-23.36,11.76-10.06,0-16.56-5.88-16.56-15.32,0-13.93,16.56-21.51,39.92-24.6v-11.6c0-10.36-6.65-15.78-15.93-15.78-3.41,0-7.43,.77-11.45,2.32,3.41,2.78,4.8,6.03,4.8,8.97,0,3.87-2.94,7.43-7.27,7.43-4.64,0-7.43-3.56-7.43-7.58,0-9.75,16.09-17.95,30.79-17.95,13.61,0,19.5,7.27,19.5,21.19v41.62Zm-13-24.14c-19.8,0-26.3,7.12-26.3,15.47,0,6.65,4.34,10.68,11.14,10.68,4.18,0,9.44-1.55,15.16-4.64v-21.51Z"/>
    <path class="cls-1" d="M1069.27,105.05c-11.76,0-15.16-5.26-15.16-16.25V41.46h-10.83v-2.01l12.07-8.05,9.13-14.08h2.63v17.48h23.52v6.65h-23.52v42.08c0,5.57,.46,9.13,3.71,11.29,2.16,1.24,6.03,1.86,11.45,1.86,2.48,0,5.41-.15,8.66-.31l.16,1.55c-6.81,4.18-14.54,7.12-21.82,7.12Z"/>
    <path class="cls-1" d="M1118.48,105.05c-11.76,0-15.16-5.26-15.16-16.25V41.46h-10.83v-2.01l12.07-8.05,9.13-14.08h2.63v17.48h23.52v6.65h-23.52v42.08c0,5.57,.46,9.13,3.71,11.29,2.16,1.24,6.03,1.86,11.45,1.86,2.48,0,5.42-.15,8.66-.31l.16,1.55c-6.81,4.18-14.54,7.12-21.82,7.12Z"/>
    <path class="cls-1" d="M1177.89,106.29c-21.82,0-33.73-15.93-33.73-37.13,0-19.8,13.31-37.13,35.89-37.13s33.57,15.47,33.57,36.67c0,19.8-13,37.59-35.74,37.59Zm.46-70.86c-10.68,0-19.18,10.99-19.18,34.19s9.44,33.26,20.27,33.26c11.45,0,19.18-10.99,19.18-34.19s-8.66-33.26-20.27-33.26Z"/>
    <path class="cls-1" d="M1290.52,99.02l10.21,2.78v2.01h-32.96v-2.01l9.75-2.78V60.18c0-11.76-4.18-17.33-14.54-17.33-6.5,0-11.14,1.24-17.33,4.8v51.37l9.59,2.78v2.01h-32.95v-2.01l10.21-2.78V45.33l-10.06-6.5v-1.39l21.66-5.57,.62,.47-.31,12.38,.62,.31c9.28-8.66,18.1-13,26.46-13,13.93,0,19.03,10.52,19.03,21.5v45.49Z"/>
  </g>
</svg>