<svg xmlns="http://www.w3.org/2000/svg" viewBox="0 0 265 68.27"><title>uk-lockup</title><line x1="32.05" y1="32.86" x2="25.34" y2="32.86" style="fill:#fff"/><polyline points="19.79 30.33 16.08 30.33 16.08 10.49 19.79 10.49 19.79 5.54 2.47 5.54 2.47 10.49 6.18 10.49 6.18 30.33 11.13 35.28 19.79 35.28 19.79 30.33" style="fill:#fff"/><polyline points="32.16 35.28 40.82 35.28 45.77 30.33 45.77 10.49 49.48 10.49 49.48 5.54 32.16 5.54 32.16 10.49 35.87 10.49 35.87 30.33 32.16 30.33 32.16 35.28" style="fill:#fff"/><polyline points="49.8 39.91 60.62 29.09 65.56 29.09 65.56 24.14 47.01 24.14 47.01 29.09 48.89 29.09 41.46 36.52 30.93 36.52 30.93 29.09 34.64 29.09 34.64 24.14 17.32 24.14 17.32 29.09 21.03 29.09 21.03 51.36 17.32 51.36 17.32 56.31 34.64 56.31 34.64 51.36 30.93 51.36 30.93 43.94 41.46 43.94 48.89 51.36 47.01 51.36 47.01 56.31 65.56 56.31 65.56 51.36 61.26 51.36 49.8 39.91" style="fill:#fff"/><path d="M71.8,73.41h-21V66h0l-5-4.95H37.16V66h3.71v7.42H21.08V66h3.71V52.38h-9.3L10,46.79V27.6H6.24V20.17H26V27.6H22.32V38.73H39.64V27.6H35.93V20.17H55.72V27.6H52V38.73H71.8v7.42H66.21l-9.58,9.58L66.85,65.94h5v7.47m-4.31-8.66-9-9,8.34-8.34H73V37.54H53.24V28.83H57V18.94H34.69v9.89H38.4v8.66H23.56V28.83h3.71V18.94H5v9.89H8.71V47.39h0l6.19,6.18h8.66V64.71H19.84V74.6H42.11V64.71H38.4V62.23h6.83l4.35,4.36v8.06h23.5v-9.9Z" transform="translate(-5 -15.87)" style="fill:#fff"/><path d="M96.72,19.3v-.68h5.91v.68l-2.38.74v9.62C100.25,33.14,98,36,93.7,36S87,34.1,87,30.16V19.76l-2.61-.46v-.68h8.07v.68l-2.89.46v9.85c0,3.76,1.92,5.13,5,5.13S99,32.5,99,29.66V20l-2.29-.74" transform="translate(-5 -15.87)" style="fill:#fff"/><path d="M114.13,34.51,116,35v.55h-5.82V35l1.79-.46V27.69c0-1.84-.73-2.89-2.43-2.89A5.4,5.4,0,0,0,106.44,26v8.47l1.78.46v.55H102.4V35l1.88-.46V25.44l-1.88-.87v-.46l3.76-1,.23.23-.18,2,.23,0c1.6-1.47,2.88-2.25,4.3-2.25,2.11,0,3.35,1.28,3.35,3.71v7.65" transform="translate(-5 -15.87)" style="fill:#fff"/><path d="M120.5,16.83a1.52,1.52,0,0,1,1.56,1.56,1.73,1.73,0,0,1-1.7,1.74,1.51,1.51,0,0,1-1.51-1.56,1.69,1.69,0,0,1,1.65-1.74m-2.93,7.74v-.46l3.89-1,.1.09V34.47l1.78.46v.55h-5.82v-.55l1.88-.46v-9Z" transform="translate(-5 -15.87)" style="fill:#fff"/><polyline points="125.44 16.86 125.67 16.86 127 13.47 128.47 9.12 126.64 8.34 126.64 7.79 131.58 7.79 131.58 8.34 129.66 9.16 125.26 19.98 124.53 19.98 119.9 8.89 118.25 8.34 118.25 7.79 124.07 7.79 124.07 8.34 122.38 8.89 125.44 16.86" style="fill:#fff"/><path d="M144.78,27.92c-.09-2.57-1-3.94-2.7-3.94s-3.07,1.69-3.25,4.12l5.95-.18m-5.95,1c-.09,3.3,1.28,5.36,4.44,5.36A6.75,6.75,0,0,0,146.94,33l.23.55c-1.65,1.56-3.12,2.38-4.86,2.38-3.39,0-5.77-2.47-5.77-6.18s2.52-6.55,5.82-6.55,4.9,2.75,4.9,5.68Z" transform="translate(-5 -15.87)" style="fill:#fff"/><path d="M156.15,26.45a1.35,1.35,0,0,1-1.29-1.74c-.87-.14-2,.92-2.65,2.06v7.74l2,.46v.55h-6V35l1.87-.46V25.44l-1.87-.87v-.46l3.75-1,.23.23-.23,2.29.28.09c1.14-1.83,2.2-2.56,3.43-2.56a1.72,1.72,0,0,1,1.93,1.65,1.51,1.51,0,0,1-1.42,1.6" transform="translate(-5 -15.87)" style="fill:#fff"/><path d="M162.52,35.84a10.59,10.59,0,0,1-3.94-.73V31.77l.64-.05c.87,2.43,2,3.39,3.75,3.39,1.52,0,2.43-.78,2.43-2.2,0-1-.73-1.65-3-2.47s-3.66-1.7-3.66-3.58,1.69-3.62,4.26-3.62a11.16,11.16,0,0,1,3.44.55l.09,2.94-.55.13c-1.06-2.1-1.93-2.88-3.44-2.88a2,2,0,0,0-2.11,1.83c0,1.05.74,1.6,2.75,2.38,2.89,1.1,4,2,4,3.8,0,2.34-2.06,3.85-4.71,3.85" transform="translate(-5 -15.87)" style="fill:#fff"/><path d="M171.68,16.83a1.52,1.52,0,0,1,1.56,1.56,1.73,1.73,0,0,1-1.7,1.74A1.51,1.51,0,0,1,170,18.57a1.69,1.69,0,0,1,1.65-1.74m-2.89,7.74v-.46l3.9-1,.09.09V34.47l1.79.46v.55h-5.82v-.55l1.87-.46v-9Z" transform="translate(-5 -15.87)" style="fill:#fff"/><path d="M179.56,35.75c-1.7,0-2.61-1-2.61-3.07V24.85h-2.06V24.3l2.24-1.06,1.24-3.16h.69v3.44h4.07v1.33h-4.07V32c0,1,.13,1.56.68,1.92a3,3,0,0,0,1.7.32,13.85,13.85,0,0,0,1.74-.13l0,.45a6.81,6.81,0,0,1-3.66,1.24" transform="translate(-5 -15.87)" style="fill:#fff"/><path d="M189.91,37.58c-1,2.62-2.1,3.49-3.57,3.49a1.58,1.58,0,0,1-1.79-1.47,1.31,1.31,0,0,1,1.38-1.28c.82,0,1.28.46,1.83,1.23a6.88,6.88,0,0,0,1.37-2.1l.78-1.74-4.58-10.95-1.6-.55v-.55h5.73v.55l-1.61.55L191,33h.13l2.8-8L192,24.21v-.55h4.9v.55l-1.79.82-5.18,12.55" transform="translate(-5 -15.87)" style="fill:#fff"/><path d="M206.32,24c-1.84,0-3.35,1.7-3.35,5.64s1.65,5.5,3.53,5.5,3.34-1.7,3.34-5.64-1.55-5.5-3.52-5.5m-.1,11.91c-3.66,0-5.72-2.74-5.72-6.36,0-3.39,2.29-6.37,6.09-6.37s5.73,2.65,5.73,6.27c0,3.44-2.25,6.46-6.1,6.46" transform="translate(-5 -15.87)" style="fill:#fff"/><path d="M217.86,24.94v9.57l2.29.46v.55h-6.32V35l1.88-.46V24.94h-2.38v-.55l2.38-.69V22.42c0-2.61.64-4.12,2-5.27a4.85,4.85,0,0,1,3.3-1.28c1.38,0,2.11.68,2.11,1.46a1.23,1.23,0,0,1-1.28,1.29c-.83,0-1.42-.46-2.2-1.84-1.19.74-1.79,1.93-1.79,4.54v2.43h3.3v1.14h-3.3" transform="translate(-5 -15.87)" style="fill:#fff"/><polyline points="107.76 55.94 111.7 57.27 111.7 58.46 99.56 58.46 99.56 57.36 102.72 56.26 93.47 44.08 89.71 44.08 89.71 56.45 94.33 57.27 94.33 58.46 80.27 58.46 80.27 57.27 85.31 56.45 85.31 30.74 80.27 29.87 80.27 28.73 94.33 28.73 94.33 29.87 89.71 30.74 89.71 42.24 93.78 42.24 103.36 31.34 99.83 29.87 99.83 28.73 110.28 28.73 110.28 29.87 106.11 31.57 96.31 41.78 107.76 55.94" style="fill:#fff"/><path d="M130.86,61c-.19-4.54-1.74-6.92-4.72-6.92s-5.41,3-5.68,7.24l10.4-.32m-10.4,1.65c-.19,5.81,2.29,9.43,7.79,9.43,2.19,0,3.8-.64,6.41-2.2l.37,1c-2.89,2.75-5.5,4.21-8.53,4.21-6,0-10.12-4.4-10.12-10.86s4.44-11.54,10.22-11.54,8.56,4.81,8.56,10Z" transform="translate(-5 -15.87)" style="fill:#fff"/><path d="M158.25,72.5l3.3.82v1H151.29v-.91l3.16-.83v-12c0-3.21-1.28-5.09-4.26-5.09-1.88,0-3.53.83-5.45,2.16V72.5l3.11.82v1H137.64v-.91l3.3-.83V56.6l-3.26-1.51v-.78l6.55-1.7.42.37-.32,3.48.41.09c2.79-2.61,5.08-3.94,7.6-3.94,3.67,0,5.87,2.25,5.87,6.51V72.5" transform="translate(-5 -15.87)" style="fill:#fff"/><path d="M170.12,74.69c-3,0-4.58-1.78-4.58-5.36V55.5H162v-1l3.94-1.84,2.15-5.54h1.19v6h7.19V55.5h-7.19V68c0,1.69.23,2.74,1.19,3.39.6.41,1.33.55,3,.55a22.23,22.23,0,0,0,3.07-.28l0,.83a12,12,0,0,1-6.42,2.19" transform="translate(-5 -15.87)" style="fill:#fff"/><path d="M201.69,72.54v.83L195.09,75l-.41-.33.32-3.43-.41-.09c-2.8,2.61-4.77,3.94-7.56,3.94-3.94,0-5.91-2.94-5.91-6.74V56.28l-3.26-1.42v-.55l6.6-1.7.41.37V67c0,3.58,1.33,5.27,4.22,5.27a9.8,9.8,0,0,0,5.5-2.11V56.28l-3.3-1.42v-.55l6.64-1.7.41.37V71.81l3.35.73" transform="translate(-5 -15.87)" style="fill:#fff"/><path d="M219,59.67a2.69,2.69,0,0,1-2.66-2.8,3.69,3.69,0,0,1,.83-2.47,6.89,6.89,0,0,0-2.11-.32c-3.62,0-7.56,3-7.56,9.66,0,5.41,3.48,8.57,7.84,8.57,2.38,0,3.84-.64,6.18-1.88l.46.6a10.86,10.86,0,0,1-8.25,4c-6,0-10.17-4.31-10.17-10.54,0-6.82,4.72-11.86,11.45-11.86,4,0,6.42,1.88,6.42,4.21a2.5,2.5,0,0,1-2.43,2.8" transform="translate(-5 -15.87)" style="fill:#fff"/><polyline points="238.61 56.49 241.22 57.5 241.22 58.46 232.29 58.46 232.29 57.5 234.26 56.49 228.21 48.38 226.01 48.38 226.01 56.63 228.81 57.5 228.81 58.46 218.96 58.46 218.96 57.5 222.25 56.63 222.25 28.09 218.59 26.53 218.59 25.7 225.6 23.87 226.01 24.19 226.01 46.78 228.21 46.78 234.26 40.04 231.74 38.39 231.74 37.57 240.4 37.57 240.4 38.53 237.28 39.72 230.5 46.18 238.61 56.49" style="fill:#fff"/><path d="M251.58,84.13c-2.2,0-3.11-1.37-3.11-2.61a2.3,2.3,0,0,1,2.38-2.24c1.47,0,2.24.82,3.21,2.15a11.87,11.87,0,0,0,2.42-3.67l1.33-3.07-8.06-19.28-2.84-1v-1h10v1l-2.8,1,5.5,14.47h.23l4.95-14.11-3.39-1.37v-1H270v1l-3.16,1.46-9,22.09" transform="translate(-5 -15.87)" style="fill:#fff"/><path d="M257.86,78c-1.88,4.58-3.67,6.14-6.28,6.14" transform="translate(-5 -15.87)" style="fill:#fff"/></svg>