<svg id="01d7aaa8-6c15-4e79-b487-1bc048c1f904" data-name="Layer 1" xmlns="http://www.w3.org/2000/svg" viewBox="0 0 81.8 66.9"><defs><style>.a6220bf9-e787-4a87-8920-a990e4933c7f{fill:#fff;}</style></defs><title>UK</title><polygon class="a6220bf9-e787-4a87-8920-a990e4933c7f" points="23.8 32.7 19.3 32.7 19.3 8.9 23.8 8.9 23.8 3 3 3 3 8.9 7.4 8.9 7.4 32.7 13.4 38.6 23.8 38.6 23.8 32.7"/><polygon class="a6220bf9-e787-4a87-8920-a990e4933c7f" points="38.6 38.6 49.1 38.6 55 32.7 55 8.9 59.5 8.9 59.5 3 38.6 3 38.6 8.9 43.1 8.9 43.1 32.7 38.6 32.7 38.6 38.6"/><polygon class="a6220bf9-e787-4a87-8920-a990e4933c7f" points="59.8 44.2 72.8 31.2 78.8 31.2 78.8 25.3 56.5 25.3 56.5 31.2 58.7 31.2 49.8 40.1 37.2 40.1 37.2 31.2 41.6 31.2 41.6 25.3 20.8 25.3 20.8 31.2 25.3 31.2 25.3 58 20.8 58 20.8 63.9 41.6 63.9 41.6 58 37.2 58 37.2 49.1 49.8 49.1 58.7 58 56.5 58 56.5 63.9 78.8 63.9 78.8 58 73.6 58 59.8 44.2"/><path class="a6220bf9-e787-4a87-8920-a990e4933c7f" d="M75.1,55L64.3,44.2l10-10h7.4V22.3H58V11.9h4.5V0H35.7V11.9h4.5V22.3H22.3V11.9h4.5V0H0V11.9H4.5V34.2h0l7.4,7.4H22.3V55H17.8V66.9H44.6V55H40.1V52h8.2l5.2,5.2v9.7H81.8V55H75.1Zm5.2,10.4H55V56.5h0l-5.9-5.9H38.6v5.9h4.5v8.9H19.3V56.5h4.5V40.1H12.6L5.9,33.4v-23H1.5V1.5H25.3v8.9H20.8V23.8H41.6V10.4H37.2V1.5H60.9v8.9H56.5V23.8H80.3v8.9H73.6L62.1,44.2,74.3,56.5h5.9v8.9Z"/></svg>